<?xml version="1.0" encoding="UTF-8"?>
<svg id="Layer_1" data-name="Layer 1" xmlns="http://www.w3.org/2000/svg" version="1.1" viewBox="0 0 252 113.55">
  <defs>
    <style>
      .cls-1 {
        fill: #6bbe4b;
      }

      .cls-1, .cls-2, .cls-3, .cls-4, .cls-5, .cls-6, .cls-7, .cls-8 {
        stroke-width: 0px;
      }

      .cls-2 {
        fill: #ec008c;
      }

      .cls-3 {
        fill: #f9a14d;
      }

      .cls-9 {
        stroke: #010101;
        stroke-width: .17px;
      }

      .cls-9, .cls-5 {
        fill: #a4afad;
      }

      .cls-4 {
        fill: #00140d;
      }

      .cls-6 {
        fill: #786aaf;
      }

      .cls-7 {
        fill: #231f20;
      }

      .cls-10 {
        opacity: .82;
      }

      .cls-11 {
        stroke: #231f20;
      }

      .cls-11, .cls-12 {
        fill: #ed1c24;
      }

      .cls-11, .cls-12, .cls-13 {
        stroke-miterlimit: 10;
      }

      .cls-8 {
        fill: #fff;
      }

      .cls-12 {
        stroke-width: .5px;
      }

      .cls-12, .cls-13 {
        stroke: #fff;
      }

      .cls-13 {
        fill: none;
        stroke-width: .81px;
      }
    </style>
  </defs>
  <g class="cls-10">
    <polygon class="cls-5" points="232.01 88.29 220.4 88.2 220.64 51.77 232.25 51.86 232.01 88.29"/>
    <path class="cls-5" d="M104.4,48.77h9.64v1.89h2.78v18.74l-12.61.13s-.56-17.35,0-17.73c.56-.38,0,0,0,0v-3.02"/>
    <path class="cls-5" d="M213.33,43.74h-.4l-.17-17.36-.42,17.36h-.39l-3.56,3.9v18.74l-.46.13h-1.38v10.56h9.63v-29.18s-3.21-4.15-2.87-4.15Z"/>
    <path class="cls-5" d="M39.95,60.23v-7.51h1.17v-2.57h.45v-1.28l.41-.45v-1.14h1.76l3.69.59v1.88h2.07l.5.54h6.98v16.05s-13.42-2.57-13.42,0-4.95,0-4.95,0c0,0,1.62-6.13,1.35-6.13Z"/>
    <rect class="cls-5" x="15.77" y="71.63" width="226.66" height="23.5"/>
    <rect class="cls-5" x="75.78" y="60.88" width="75.82" height="24.9"/>
    <polygon class="cls-5" points="99.91 16.84 99.91 16.14 98.72 15.76 98.72 14.83 98.49 14.83 98.49 15.69 97.32 15.32 97.32 13.22 97.16 13.22 97.16 15.27 96.97 15.21 95.57 15.17 95.57 12.94 95.37 12.94 95.37 15.17 94.51 15.15 94.51 13.79 94.32 13.79 94.32 15.14 93.26 15.12 93.26 4.02 93 4.02 93 15.11 92.76 15.11 92.76 14.17 92.68 14.17 92.68 15.11 91.98 15.09 91.98 14.26 91.51 14.26 91.51 15.08 90.85 15.06 90.5 15.07 90.5 14.36 90.3 14.36 90.3 15.07 89.13 15.09 89.13 14.12 88.9 14.12 88.9 15.09 88.06 15.11 88.06 5.82 87.82 5.82 87.82 15.11 86.79 15.13 86.79 14.45 86.48 14.45 86.48 15.13 85.19 15.15 85.19 14.36 84.92 14.36 84.92 15.18 81.76 16.2 81.76 17.25 81.41 17.38 81.45 19.74 81.76 19.63 81.76 63.3 99.57 63.3 99.89 19.63 100.25 19.69 100.25 16.9 99.91 16.84"/>
    <polygon class="cls-5" points="127.78 38.02 127.78 34.88 127.2 34.25 127.2 30.48 126.75 29.98 126.75 27.21 125.83 27.21 125.83 25.82 125.48 26.2 125.48 24.95 124.91 24.78 124.91 23.81 124.68 23.81 124.68 24.72 123.88 24.49 123.88 23.06 123.76 23.06 123.76 24.45 122.5 24.09 122.5 23.18 122.27 23.18 122.27 24.03 120.9 23.63 120.9 22.05 120.67 22.05 120.67 23.57 120.21 23.44 119.64 23.44 119.64 22.56 119.41 22.56 119.41 23.44 118.43 23.44 118.43 25.13 118.15 25.45 118.15 27.08 117 27.08 117 29.72 116.2 29.72 116.2 33.5 115.62 33.5 115.62 36.89 114.25 36.89 114.25 64.43 112.18 64.43 112.18 74.87 112.76 75.5 112.07 75.88 114.71 75.88 128.7 75.88 128.7 71.6 128.7 38.02 127.78 38.02"/>
    <polygon class="cls-5" points="128.24 45.32 130.65 45.32 130.65 43.56 132.02 43.56 132.02 42.05 133.85 42.05 134.66 41.17 136.72 41.17 136.72 32.11 141.77 29.72 144.06 30.35 144.06 36.01 146.01 36.01 146.01 39.66 147.62 39.66 147.62 42.55 149.11 42.55 149.11 64.43 149.11 76.13 125.94 76.13 128.24 45.32"/>
    <rect class="cls-5" x="141.88" y="25.57" width=".34" height="5.28"/>
    <rect class="cls-5" x="139.13" y="28.85" width="1.15" height="3.02"/>
    <path class="cls-9" d="M148.9,45.34"/>
    <rect class="cls-5" x="163.05" y="34.71" width="2.1" height=".37"/>
    <rect class="cls-5" x="163.05" y="35.48" width="2.1" height=".37"/>
    <rect class="cls-5" x="163.05" y="36.25" width="2.1" height=".37"/>
    <rect class="cls-5" x="163.05" y="37.02" width="2.1" height=".37"/>
    <rect class="cls-5" x="163.05" y="37.8" width="2.1" height=".37"/>
    <path class="cls-5" d="M178.36,58.87h-2.23v-31.49h-1.38v-3.02l.7-1.04c.32-.18.5-.38.5-.59,0-.84-2.88-1.52-6.43-1.52s-6.43.68-6.43,1.52c0,.25.26.49.72.7l.84.95v3.99h-1.63v.68h.46v.27h-.42v.37h.42v.4h-.42v.37h.42v.4h-.42v.37h.42v.4h-.42v.37h.42v.4h-.42v.37h.42v.4h-.42v.37h.42v.4h-.42v.37h.42v4.5h-2.55v5.25h-5.1v1.52l-7.76.35-5.2,1.97v34.71l.17-.57,37.03-1.13v-22.04h-1.7ZM165.88,24.29h-.88v-1.04h.88v1.04ZM167.07,24.24h-.88v-1.04h.88v1.04ZM168.26,24.24h-.88v-1.04h.88v1.04ZM169.48,24.18h-.89v-1.04h.89v1.04ZM170.72,24.2h-.88v-1.04h.88v1.04ZM171.93,24.18h-.88v-1.04h.88v1.04ZM173.19,24.2h-.88v-1.04h.88v1.04ZM174.43,24.23h-.89v-1.04h.89v1.04Z"/>
    <polygon class="cls-5" points="178.9 85.23 178.9 52.04 181.91 52.04 181.91 49.93 186.78 49.93 186.78 48.57 189.35 48.57 189.35 50.08 192.36 50.08 192.36 84.18 178.9 85.23"/>
    <path class="cls-5" d="M182.74,57.47h8.44v-10.5l4.87-3.56s5.35,2.85,5.03,2.85,0,2.31,0,2.31h1.3v9.61h2.92v3.2h5.19v-1.96h1.46v-.71h3.89v2.14h1.3v-3.2h1.78v-1.07h2.43v1.07h2.27v-1.07h2.43v2.14h7.3v3.03h3.73v2.31h2.27v1.42h2.27v4.63s.32,11.75,0,11.75h-67.01v-23.31h6.33l1.78-1.07Z"/>
    <polygon class="cls-5" points="59.63 54.7 59.63 46.58 60.99 46.58 60.99 45.51 59.7 45.51 59.7 44.68 65.51 44.68 66.42 45.01 66.42 42.94 69.82 42.94 69.82 42.12 70.87 42.12 70.87 43.02 72 43.69 72 45.43 72.83 45.43 72.83 46.67 74.57 46.67 74.57 44.85 75.85 44.85 75.85 42.69 80.53 42.69 83.85 42.69 83.85 58.25 86.12 58.25 86.12 65.7 86.12 71.5 86.12 75.88 58.19 75.88 44.31 75.88 44.31 60.49 54.12 60.49 54.12 54.12 57.52 54.12 59.63 54.7"/>
    <polygon class="cls-5" points="21.6 66.16 21.6 47.88 26.43 47.88 26.43 45.36 29.21 45.36 29.21 47.62 31.38 47.62 31.38 50.93 33.19 50.93 33.19 49.73 34.76 49.73 34.76 55.69 37.06 55.69 37.06 58.21 41.16 58.21 41.16 64.17 47.68 64.17 47.68 75.16 20.03 75.16 20.03 65.76 21.6 66.16"/>
    <rect class="cls-5" x="12.15" y="62.58" width="5.79" height="32.55"/>
    <path class="cls-5" d="M15.29,65.31v-15.81h-1.23v-.91h.67v-2.09h.8v-1.55h-3.65v1.55h.8v2.09h.67v.91h-.92v24.42h-.37v1.88h4.93v-10.49h-1.72ZM10.83,32.04l-.63,11.99h-.1v.34h-.52v1.25h1.87v-1.25h-.22l-.39-12.33Z"/>
  </g>
  <g>
    <path class="cls-4" d="M291.78-62.53c0,7.47-6.05,13.52-13.52,13.52s-13.52-6.05-13.52-13.52,6.05-13.52,13.52-13.52,13.52,6.05,13.52,13.52"/>
    <line class="cls-13" x1="265.52" y1="-62.53" x2="291" y2="-62.53"/>
    <line class="cls-13" x1="278.26" y1="-49.79" x2="278.26" y2="-75.27"/>
    <path class="cls-8" d="M288.72-62.53c0,5.78-4.68,10.46-10.46,10.46s-10.46-4.68-10.46-10.46,4.68-10.46,10.46-10.46,10.46,4.68,10.46,10.46"/>
    <path class="cls-3" d="M278.66-53.06c4.92-.21,8.86-4.15,9.07-9.07h-9.07v9.07Z"/>
    <path class="cls-1" d="M268.79-62.13c.21,4.92,4.15,8.86,9.07,9.07v-9.07h-9.07Z"/>
    <path class="cls-2" d="M277.86-72c-4.92.21-8.86,4.15-9.07,9.07h9.07v-9.07Z"/>
    <path class="cls-6" d="M287.73-62.93c-.21-4.92-4.15-8.86-9.07-9.07v9.07h9.07Z"/>
    <rect class="cls-8" x="277.86" y="-62.93" width=".81" height=".81"/>
  </g>
  <g>
    <path class="cls-11" d="M52.4,85.94h-10.67v-1.44c.92,0,1.6-.09,2.02-.27.43-.18.71-.45.84-.8s.2-.83.2-1.44v-13.34l-8.04,17.29h-.96l-8.15-17.29v12.66c0,.67.02,1.18.07,1.54.05.36.17.66.36.91.19.25.5.44.92.56.42.12,1,.18,1.74.18v1.44h-7.88v-1.44c.75,0,1.34-.06,1.75-.19.41-.13.71-.31.9-.56s.3-.55.34-.9.06-.86.06-1.53v-12.05c0-.9-.05-1.55-.14-1.95-.09-.4-.35-.7-.78-.9s-1.14-.31-2.14-.31v-1.44h7.78l7.06,15.02,7.08-15.02h7.61v1.44c-1.31,0-2.15.19-2.53.57-.38.38-.57,1.03-.57,1.94v13.37c0,.58.06,1.04.19,1.4.13.36.42.63.87.82s1.14.29,2.05.29v1.44Z"/>
    <path class="cls-11" d="M70.21,79.83c0,.66-.14,1.36-.42,2.1-.28.74-.71,1.44-1.28,2.12-.57.67-1.29,1.22-2.16,1.65s-1.87.64-3.01.64-2.25-.25-3.37-.74c-1.11-.49-2.06-1.22-2.83-2.2-.34.77-.55,1.49-.64,2.15h-1.44v-7.28h1.44c.26,1.05.62,2.03,1.08,2.95.46.92,1.11,1.71,1.95,2.38.84.66,1.88,1,3.1,1,1.07,0,1.92-.29,2.57-.88.64-.59.97-1.32.97-2.21,0-.5-.1-.94-.3-1.32-.2-.38-.49-.71-.86-1.01-.38-.3-.89-.62-1.55-.96-.65-.34-1.4-.7-2.24-1.07-1.29-.61-2.34-1.22-3.17-1.84-.83-.62-1.45-1.22-1.88-1.8-.42-.58-.72-1.13-.88-1.66s-.24-1.05-.24-1.59c0-.95.26-1.89.77-2.82s1.26-1.68,2.25-2.28c.99-.59,2.13-.89,3.43-.89.99,0,1.94.22,2.84.67s1.68,1.05,2.34,1.83c.19-.44.36-1.06.52-1.85h1.47v5.93h-1.47c-1.05-3.23-2.87-4.85-5.46-4.85-.94,0-1.7.25-2.27.75-.57.5-.86,1.14-.86,1.92,0,.62.18,1.15.53,1.61.36.46.82.84,1.4,1.17.58.32,1.52.79,2.82,1.4,1.57.74,2.8,1.39,3.68,1.93s1.63,1.23,2.24,2.06c.61.83.92,1.83.92,3Z"/>
    <path class="cls-11" d="M91.51,78.94l-.17,7h-18.96v-1.44c1.31,0,2.15-.19,2.53-.56.38-.38.56-1.03.56-1.95v-13.37c0-.61-.06-1.08-.18-1.42-.12-.34-.4-.61-.85-.8-.44-.19-1.13-.29-2.06-.29v-1.44h17.65l.28,5.52h-1.44c-.32-1.22-.7-2.1-1.12-2.63s-.9-.85-1.43-.97c-.53-.12-1.32-.18-2.38-.18h-3.99v7.52h2.17c.74,0,1.3-.07,1.66-.2.37-.13.62-.38.77-.75s.25-.94.3-1.73h1.51v7.08h-1.44c-.04-.78-.15-1.36-.31-1.73-.17-.37-.43-.62-.79-.75-.36-.13-.91-.19-1.66-.19h-2.2v5.01c0,.84.02,1.45.06,1.84.04.39.15.71.34.97.18.26.48.44.89.56.41.12,1,.17,1.77.17h1.71c.72,0,1.41-.09,2.06-.27.65-.18,1.3-.65,1.92-1.41.63-.76,1.07-1.95,1.32-3.57h1.48Z"/>
    <path class="cls-11" d="M125.37,77.54c-.61.06-1.06.16-1.37.29s-.52.36-.64.67c-.12.32-.17.81-.17,1.48v4.99c-1.52,0-3.16.2-4.93.6-1.28.28-2.23.48-2.87.59-.64.11-1.39.16-2.26.16-2.3,0-4.27-.54-5.92-1.62-1.64-1.08-2.87-2.46-3.7-4.16-.82-1.7-1.23-3.44-1.23-5.23,0-2.05.49-3.92,1.46-5.61.97-1.69,2.29-3.02,3.95-3.99,1.66-.97,3.48-1.45,5.46-1.45,2.41,0,4.6.83,6.58,2.5.24-.45.43-1.07.58-1.85h1.52l.16,6.97h-1.44c-.22-1.06-.63-2.03-1.24-2.9-.61-.88-1.36-1.57-2.27-2.09-.9-.51-1.9-.77-2.99-.77-.8,0-1.57.14-2.34.42s-1.48.76-2.14,1.44-1.2,1.62-1.6,2.8c-.4,1.18-.6,2.64-.6,4.38,0,1.49.16,2.91.47,4.28.31,1.37.95,2.55,1.91,3.53.96.98,2.32,1.47,4.08,1.47,1.38,0,2.43-.22,3.14-.65.71-.43,1.17-.96,1.39-1.59.21-.63.32-1.33.32-2.1,0-.73-.06-1.27-.16-1.6-.11-.34-.37-.58-.77-.74-.4-.16-1.02-.24-1.86-.24v-1.44h9.48v1.44Z"/>
    <path class="cls-11" d="M139.67,75.04c0,.61-.19,1.09-.56,1.44-.37.35-.81.53-1.31.53-.6,0-1.12-.29-1.57-.88-.21-.26-.38-.45-.52-.57-.14-.11-.33-.17-.58-.17-.82,0-1.45.44-1.91,1.33-.46.88-.68,1.8-.68,2.75v2.73c0,.88.11,1.48.34,1.8.23.32.82.49,1.78.49h.83v1.44h-9.75v-1.44h.82c.88,0,1.42-.17,1.62-.5.2-.34.3-.93.3-1.79v-4.58c0-.7-.07-1.2-.21-1.51-.14-.3-.4-.5-.76-.6s-.95-.15-1.76-.15v-1.44l6.12-1.35c.16.53.3,1.67.44,3.41.29-.62.68-1.18,1.15-1.7.48-.51,1.01-.93,1.6-1.24.59-.31,1.2-.47,1.81-.47.86,0,1.54.24,2.04.72.5.48.75,1.07.75,1.76Z"/>
    <path class="cls-11" d="M157,82.62c0,.79-.16,1.47-.49,2.03s-.76.97-1.31,1.24-1.17.4-1.86.4c-.88,0-1.61-.21-2.2-.62-.59-.41-.94-.91-1.05-1.48-1.75,1.4-3.51,2.1-5.27,2.1-1.13,0-2.06-.27-2.78-.82-.72-.55-1.08-1.27-1.08-2.17,0-.74.19-1.41.58-2.02.39-.6.95-1.14,1.7-1.61.75-.47,1.64-.89,2.68-1.25s2.33-.74,3.88-1.14v-.89c0-.74-.18-1.33-.53-1.75-.35-.42-1-.64-1.94-.64-.81,0-1.39.17-1.74.5s-.59.84-.71,1.52c-.08.48-.24.88-.46,1.19s-.69.46-1.4.46c-.44,0-.83-.13-1.16-.38s-.5-.62-.5-1.11c0-.97.53-1.82,1.59-2.54s2.68-1.08,4.86-1.08c2.3,0,3.88.39,4.75,1.16.86.77,1.29,1.81,1.29,3.11v4.96c0,.63.02,1.09.05,1.38s.12.52.26.67c.14.15.36.23.67.23.27,0,.51-.14.71-.42s.31-.62.31-1.02h1.16ZM149.79,82.75v-3.89c-1.99.63-3.25,1.24-3.79,1.84s-.81,1.19-.81,1.77c0,.48.15.87.44,1.16s.71.44,1.24.44c.57,0,1.08-.12,1.52-.36s.9-.56,1.4-.96Z"/>
    <path class="cls-11" d="M175.12,79.28c0,1.29-.3,2.48-.9,3.59-.6,1.1-1.43,1.98-2.49,2.62-1.06.64-2.25.97-3.57.97-1.65,0-3.09-.58-4.32-1.74v5.02c0,.6.04,1.04.12,1.34.08.3.26.52.53.68.28.15.7.23,1.28.23h.86v1.44h-9.12v-1.44c.71,0,1.22-.06,1.54-.18.31-.12.52-.33.6-.62.09-.29.13-.77.13-1.44v-12.29c0-.61-.04-1.05-.13-1.32-.09-.27-.29-.47-.6-.59-.31-.12-.82-.18-1.54-.18v-1.44l6.1-1.35c.13.42.2,1.08.22,1.99.69-.69,1.4-1.2,2.14-1.51.74-.32,1.59-.48,2.55-.48,1.05,0,1.98.19,2.81.56.83.38,1.52.88,2.07,1.51s.98,1.35,1.27,2.17.44,1.63.44,2.47ZM170.79,79.12c0-3.21-1.12-4.82-3.37-4.82-.73,0-1.4.21-2.02.64-.61.42-1.13.94-1.56,1.55v6.2c.41.62.94,1.11,1.59,1.48.65.37,1.33.55,2.02.55,2.23,0,3.34-1.86,3.34-5.59Z"/>
    <path class="cls-11" d="M194.6,85.94h-8.07v-1.44c.72,0,1.22-.13,1.49-.38.27-.26.41-.63.41-1.12v-5.27c0-.52-.03-.99-.1-1.41-.07-.42-.25-.8-.54-1.14-.29-.34-.74-.51-1.35-.51-.49,0-.99.13-1.5.4s-.9.61-1.17,1.04c-.29.48-.48.94-.56,1.39s-.12.98-.12,1.61v2.7c0,.73.03,1.27.09,1.61.06.34.22.61.49.8.27.19.71.29,1.33.29v1.44h-8.22v-1.44c.7,0,1.22-.07,1.55-.22.33-.15.53-.36.61-.65.08-.29.12-.76.12-1.42v-13.17c0-.78-.13-1.31-.38-1.58s-.88-.41-1.9-.42v-1.41l6.32-1.35v10.59c.62-.65,1.26-1.2,1.92-1.64s1.59-.67,2.77-.67c.54,0,1.09.08,1.63.24.54.16,1.03.39,1.47.69.43.3.75.65.95,1.04.43.76.64,1.76.64,2.98v4.69c0,.88.11,1.48.34,1.8.23.32.82.49,1.78.49v1.44Z"/>
    <path class="cls-11" d="M204.44,85.94h-8.52v-1.44h.46c.61,0,1.05-.08,1.33-.25.28-.17.45-.4.51-.71.06-.3.09-.75.09-1.33v-4.66c0-.65-.04-1.11-.12-1.38-.08-.27-.28-.47-.61-.6-.33-.13-.88-.19-1.66-.2v-1.44l6.43-1.35v9.64c0,.88.11,1.48.33,1.8.22.32.81.49,1.76.49v1.44ZM202.66,66.43c0,.63-.22,1.16-.67,1.61-.44.44-.98.67-1.61.67s-1.15-.23-1.61-.68-.68-.99-.68-1.59.22-1.17.67-1.62c.45-.45.99-.67,1.62-.67s1.18.22,1.62.66.66.98.66,1.63Z"/>
    <path class="cls-11" d="M220.18,82.75c-1.27,2.47-3.3,3.7-6.1,3.7-1.31,0-2.55-.27-3.71-.8-1.17-.53-2.1-1.31-2.81-2.32-.71-1.01-1.06-2.2-1.06-3.56,0-.94.19-1.84.57-2.7.38-.86.93-1.63,1.66-2.32.72-.69,1.58-1.23,2.57-1.61s2.05-.57,3.18-.57c1.44,0,2.71.29,3.81.86,1.1.57,1.65,1.36,1.65,2.36,0,.46-.17.85-.52,1.18-.34.32-.74.49-1.19.49s-.76-.1-.99-.3c-.23-.2-.38-.4-.46-.61-.07-.21-.18-.58-.31-1.11-.14-.51-.36-.88-.67-1.09s-.75-.32-1.32-.32c-.95,0-1.8.35-2.54,1.06-.74.71-1.11,2.03-1.11,3.96,0,1.04.15,1.99.45,2.86.3.87.77,1.56,1.41,2.06.64.51,1.43.76,2.36.76,1.04,0,1.83-.26,2.37-.77.54-.51,1.03-1.11,1.44-1.8l1.32.61Z"/>
    <path class="cls-11" d="M235.32,82.2c0,.9-.27,1.67-.81,2.31-.54.64-1.28,1.12-2.21,1.45-.94.33-2.02.49-3.24.49-.83,0-1.66-.08-2.49-.24-.84-.16-1.57-.41-2.2-.73l-.61.88h-1.22l-.16-4.08h1.32c.23.7.76,1.33,1.59,1.89.83.56,2.02.84,3.59.84.4,0,.83-.03,1.29-.09.46-.06.9-.22,1.33-.48s.64-.66.64-1.21c0-.47-.22-.81-.65-1.03-.43-.21-1.25-.47-2.44-.78-1.44-.37-2.63-.71-3.55-1.04-.92-.33-1.7-.8-2.34-1.42s-.96-1.41-.96-2.39c0-1.23.57-2.21,1.7-2.93,1.13-.72,2.62-1.08,4.46-1.08,1.15,0,2.07.09,2.76.28.69.19,1.27.39,1.74.61l.38-.8h1.26v3.64h-1.29c-.11-.43-.38-.82-.78-1.18-.41-.36-.95-.63-1.63-.82-.67-.19-1.46-.29-2.34-.29-.73,0-1.46.08-2.19.24-.73.16-1.09.53-1.09,1.11,0,.24.07.44.21.6.14.16.38.3.73.44.34.14.95.31,1.82.53.87.22,1.39.35,1.55.39,1.71.43,3.11.96,4.2,1.59s1.64,1.73,1.64,3.3Z"/>
  </g>
  <g>
    <path class="cls-12" d="M51.92,85.09h-10.67v-1.44c.92,0,1.6-.09,2.02-.27.43-.18.71-.45.84-.8s.2-.83.2-1.44v-13.34l-8.04,17.29h-.96l-8.15-17.29v12.66c0,.67.02,1.18.07,1.54.05.36.17.66.36.91.19.25.5.44.92.56.42.12,1,.18,1.74.18v1.44h-7.88v-1.44c.75,0,1.34-.06,1.75-.19.41-.13.71-.31.9-.56s.3-.55.34-.9.06-.86.06-1.53v-12.05c0-.9-.05-1.55-.14-1.95-.09-.4-.35-.7-.78-.9s-1.14-.31-2.14-.31v-1.44h7.78l7.06,15.02,7.08-15.02h7.61v1.44c-1.31,0-2.15.19-2.53.57-.38.38-.57,1.03-.57,1.94v13.37c0,.58.06,1.04.19,1.4.13.36.42.63.87.82s1.14.29,2.05.29v1.44Z"/>
    <path class="cls-12" d="M69.73,78.98c0,.66-.14,1.36-.42,2.1-.28.74-.71,1.44-1.28,2.12-.57.67-1.29,1.22-2.16,1.65s-1.87.64-3.01.64-2.25-.25-3.37-.74c-1.11-.49-2.06-1.22-2.83-2.2-.34.77-.55,1.49-.64,2.15h-1.44v-7.28h1.44c.26,1.05.62,2.03,1.08,2.95.46.92,1.11,1.71,1.95,2.38.84.66,1.88,1,3.1,1,1.07,0,1.92-.29,2.57-.88.64-.59.97-1.32.97-2.21,0-.5-.1-.94-.3-1.32-.2-.38-.49-.71-.86-1.01-.38-.3-.89-.62-1.55-.96-.65-.34-1.4-.7-2.24-1.07-1.29-.61-2.34-1.22-3.17-1.84-.83-.62-1.45-1.22-1.88-1.8-.42-.58-.72-1.13-.88-1.66s-.24-1.05-.24-1.59c0-.95.26-1.89.77-2.82s1.26-1.68,2.25-2.28c.99-.59,2.13-.89,3.43-.89.99,0,1.94.22,2.84.67s1.68,1.05,2.34,1.83c.19-.44.36-1.06.52-1.85h1.47v5.93h-1.47c-1.05-3.23-2.87-4.85-5.46-4.85-.94,0-1.7.25-2.27.75-.57.5-.86,1.14-.86,1.92,0,.62.18,1.15.53,1.61.36.46.82.84,1.4,1.17.58.32,1.52.79,2.82,1.4,1.57.74,2.8,1.39,3.68,1.93s1.63,1.23,2.24,2.06c.61.83.92,1.83.92,3Z"/>
    <path class="cls-12" d="M91.03,78.09l-.17,7h-18.96v-1.44c1.31,0,2.15-.19,2.53-.56.38-.38.56-1.03.56-1.95v-13.37c0-.61-.06-1.08-.18-1.42-.12-.34-.4-.61-.85-.8-.44-.19-1.13-.29-2.06-.29v-1.44h17.65l.28,5.52h-1.44c-.32-1.22-.7-2.1-1.12-2.63s-.9-.85-1.43-.97c-.53-.12-1.32-.18-2.38-.18h-3.99v7.52h2.17c.74,0,1.3-.07,1.66-.2.37-.13.62-.38.77-.75s.25-.94.3-1.73h1.51v7.08h-1.44c-.04-.78-.15-1.36-.31-1.73-.17-.37-.43-.62-.79-.75-.36-.13-.91-.19-1.66-.19h-2.2v5.01c0,.84.02,1.45.06,1.84.04.39.15.71.34.97.18.26.48.44.89.56.41.12,1,.17,1.77.17h1.71c.72,0,1.41-.09,2.06-.27.65-.18,1.3-.65,1.92-1.41.63-.76,1.07-1.95,1.32-3.57h1.48Z"/>
    <path class="cls-12" d="M124.89,76.69c-.61.06-1.06.16-1.37.29s-.52.36-.64.67c-.12.32-.17.81-.17,1.48v4.99c-1.52,0-3.16.2-4.93.6-1.28.28-2.23.48-2.87.59-.64.11-1.39.16-2.26.16-2.3,0-4.27-.54-5.92-1.62-1.64-1.08-2.87-2.46-3.7-4.16-.82-1.7-1.23-3.44-1.23-5.23,0-2.05.49-3.92,1.46-5.61.97-1.69,2.29-3.02,3.95-3.99,1.66-.97,3.48-1.45,5.46-1.45,2.41,0,4.6.83,6.58,2.5.24-.45.43-1.07.58-1.85h1.52l.16,6.97h-1.44c-.22-1.06-.63-2.03-1.24-2.9-.61-.88-1.36-1.57-2.27-2.09-.9-.51-1.9-.77-2.99-.77-.8,0-1.57.14-2.34.42s-1.48.76-2.14,1.44-1.2,1.62-1.6,2.8c-.4,1.18-.6,2.64-.6,4.38,0,1.49.16,2.91.47,4.28.31,1.37.95,2.55,1.91,3.53.96.98,2.32,1.47,4.08,1.47,1.38,0,2.43-.22,3.14-.65.71-.43,1.17-.96,1.39-1.59.21-.63.32-1.33.32-2.1,0-.73-.06-1.27-.16-1.6-.11-.34-.37-.58-.77-.74-.4-.16-1.02-.24-1.86-.24v-1.44h9.48v1.44Z"/>
    <path class="cls-12" d="M139.19,74.19c0,.61-.19,1.09-.56,1.44-.37.35-.81.53-1.31.53-.6,0-1.12-.29-1.57-.88-.21-.26-.38-.45-.52-.57-.14-.11-.33-.17-.58-.17-.82,0-1.45.44-1.91,1.33-.46.88-.68,1.8-.68,2.75v2.73c0,.88.11,1.48.34,1.8.23.32.82.49,1.78.49h.83v1.44h-9.75v-1.44h.82c.88,0,1.42-.17,1.62-.5.2-.34.3-.93.3-1.79v-4.58c0-.7-.07-1.2-.21-1.51-.14-.3-.4-.5-.76-.6s-.95-.15-1.76-.15v-1.44l6.12-1.35c.16.53.3,1.67.44,3.41.29-.62.68-1.18,1.15-1.7.48-.51,1.01-.93,1.6-1.24.59-.31,1.2-.47,1.81-.47.86,0,1.54.24,2.04.72.5.48.75,1.07.75,1.76Z"/>
    <path class="cls-12" d="M156.51,81.78c0,.79-.16,1.47-.49,2.03s-.76.97-1.31,1.24-1.17.4-1.86.4c-.88,0-1.61-.21-2.2-.62-.59-.41-.94-.91-1.05-1.48-1.75,1.4-3.51,2.1-5.27,2.1-1.13,0-2.06-.27-2.78-.82-.72-.55-1.08-1.27-1.08-2.17,0-.74.19-1.41.58-2.02.39-.6.95-1.14,1.7-1.61.75-.47,1.64-.89,2.68-1.25s2.33-.74,3.88-1.14v-.89c0-.74-.18-1.33-.53-1.75-.35-.42-1-.64-1.94-.64-.81,0-1.39.17-1.74.5s-.59.84-.71,1.52c-.08.48-.24.88-.46,1.19s-.69.46-1.4.46c-.44,0-.83-.13-1.16-.38s-.5-.62-.5-1.11c0-.97.53-1.82,1.59-2.54s2.68-1.08,4.86-1.08c2.3,0,3.88.39,4.75,1.16.86.77,1.29,1.81,1.29,3.11v4.96c0,.63.02,1.09.05,1.38s.12.52.26.67c.14.15.36.23.67.23.27,0,.51-.14.71-.42s.31-.62.31-1.02h1.16ZM149.31,81.9v-3.89c-1.99.63-3.25,1.24-3.79,1.84s-.81,1.19-.81,1.77c0,.48.15.87.44,1.16s.71.44,1.24.44c.57,0,1.08-.12,1.52-.36s.9-.56,1.4-.96Z"/>
    <path class="cls-12" d="M174.64,78.43c0,1.29-.3,2.48-.9,3.59-.6,1.1-1.43,1.98-2.49,2.62-1.06.64-2.25.97-3.57.97-1.65,0-3.09-.58-4.32-1.74v5.02c0,.6.04,1.04.12,1.34.08.3.26.52.53.68.28.15.7.23,1.28.23h.86v1.44h-9.12v-1.44c.71,0,1.22-.06,1.54-.18.31-.12.52-.33.6-.62.09-.29.13-.77.13-1.44v-12.29c0-.61-.04-1.05-.13-1.32-.09-.27-.29-.47-.6-.59-.31-.12-.82-.18-1.54-.18v-1.44l6.1-1.35c.13.42.2,1.08.22,1.99.69-.69,1.4-1.2,2.14-1.51.74-.32,1.59-.48,2.55-.48,1.05,0,1.98.19,2.81.56.83.38,1.52.88,2.07,1.51s.98,1.35,1.27,2.17.44,1.63.44,2.47ZM170.31,78.28c0-3.21-1.12-4.82-3.37-4.82-.73,0-1.4.21-2.02.64-.61.42-1.13.94-1.56,1.55v6.2c.41.62.94,1.11,1.59,1.48.65.37,1.33.55,2.02.55,2.23,0,3.34-1.86,3.34-5.59Z"/>
    <path class="cls-12" d="M194.12,85.09h-8.07v-1.44c.72,0,1.22-.13,1.49-.38.27-.26.41-.63.41-1.12v-5.27c0-.52-.03-.99-.1-1.41-.07-.42-.25-.8-.54-1.14-.29-.34-.74-.51-1.35-.51-.49,0-.99.13-1.5.4s-.9.61-1.17,1.04c-.29.48-.48.94-.56,1.39s-.12.98-.12,1.61v2.7c0,.73.03,1.27.09,1.61.06.34.22.61.49.8.27.19.71.29,1.33.29v1.44h-8.22v-1.44c.7,0,1.22-.07,1.55-.22.33-.15.53-.36.61-.65.08-.29.12-.76.12-1.42v-13.17c0-.78-.13-1.31-.38-1.58s-.88-.41-1.9-.42v-1.41l6.32-1.35v10.59c.62-.65,1.26-1.2,1.92-1.64s1.59-.67,2.77-.67c.54,0,1.09.08,1.63.24.54.16,1.03.39,1.47.69.43.3.75.65.95,1.04.43.76.64,1.76.64,2.98v4.69c0,.88.11,1.48.34,1.8.23.32.82.49,1.78.49v1.44Z"/>
    <path class="cls-12" d="M203.96,85.09h-8.52v-1.44h.46c.61,0,1.05-.08,1.33-.25.28-.17.45-.4.51-.71.06-.3.09-.75.09-1.33v-4.66c0-.65-.04-1.11-.12-1.38-.08-.27-.28-.47-.61-.6-.33-.13-.88-.19-1.66-.2v-1.44l6.43-1.35v9.64c0,.88.11,1.48.33,1.8.22.32.81.49,1.76.49v1.44ZM202.18,65.58c0,.63-.22,1.16-.67,1.61-.44.44-.98.67-1.61.67s-1.15-.23-1.61-.68-.68-.99-.68-1.59.22-1.17.67-1.62c.45-.45.99-.67,1.62-.67s1.18.22,1.62.66.66.98.66,1.63Z"/>
    <path class="cls-12" d="M219.7,81.9c-1.27,2.47-3.3,3.7-6.1,3.7-1.31,0-2.55-.27-3.71-.8-1.17-.53-2.1-1.31-2.81-2.32-.71-1.01-1.06-2.2-1.06-3.56,0-.94.19-1.84.57-2.7.38-.86.93-1.63,1.66-2.32.72-.69,1.58-1.23,2.57-1.61s2.05-.57,3.18-.57c1.44,0,2.71.29,3.81.86,1.1.57,1.65,1.36,1.65,2.36,0,.46-.17.85-.52,1.18-.34.32-.74.49-1.19.49s-.76-.1-.99-.3c-.23-.2-.38-.4-.46-.61-.07-.21-.18-.58-.31-1.11-.14-.51-.36-.88-.67-1.09s-.75-.32-1.32-.32c-.95,0-1.8.35-2.54,1.06-.74.71-1.11,2.03-1.11,3.96,0,1.04.15,1.99.45,2.86.3.87.77,1.56,1.41,2.06.64.51,1.43.76,2.36.76,1.04,0,1.83-.26,2.37-.77.54-.51,1.03-1.11,1.44-1.8l1.32.61Z"/>
    <path class="cls-12" d="M234.84,81.35c0,.9-.27,1.67-.81,2.31-.54.64-1.28,1.12-2.21,1.45-.94.33-2.02.49-3.24.49-.83,0-1.66-.08-2.49-.24-.84-.16-1.57-.41-2.2-.73l-.61.88h-1.22l-.16-4.08h1.32c.23.7.76,1.33,1.59,1.89.83.56,2.02.84,3.59.84.4,0,.83-.03,1.29-.09.46-.06.9-.22,1.33-.48s.64-.66.64-1.21c0-.47-.22-.81-.65-1.03-.43-.21-1.25-.47-2.44-.78-1.44-.37-2.63-.71-3.55-1.04-.92-.33-1.7-.8-2.34-1.42s-.96-1.41-.96-2.39c0-1.23.57-2.21,1.7-2.93,1.13-.72,2.62-1.08,4.46-1.08,1.15,0,2.07.09,2.76.28.69.19,1.27.39,1.74.61l.38-.8h1.26v3.64h-1.29c-.11-.43-.38-.82-.78-1.18-.41-.36-.95-.63-1.63-.82-.67-.19-1.46-.29-2.34-.29-.73,0-1.46.08-2.19.24-.73.16-1.09.53-1.09,1.11,0,.24.07.44.21.6.14.16.38.3.73.44.34.14.95.31,1.82.53.87.22,1.39.35,1.55.39,1.71.43,3.11.96,4.2,1.59s1.64,1.73,1.64,3.3Z"/>
  </g>
  <g>
    <path class="cls-7" d="M35.78,107.9h-2.15c-.04-.1-.06-.2-.06-.28,0-.28.1-.42.31-.42h.41v-5.64h-.69c-.04-.13-.06-.22-.06-.29,0-.16.06-.27.19-.34s.34-.1.64-.1.55.04.74.14c.03.07.05.14.05.22,0,.08.01.18.01.31.17-.24.42-.43.73-.56.31-.13.63-.2.96-.2.65,0,1.14.23,1.49.68s.52,1.03.52,1.74c0,.8-.2,1.44-.6,1.9-.4.47-.93.7-1.6.7-.63,0-1.11-.17-1.44-.5v1.94h.8c.04.1.06.2.06.28,0,.28-.1.42-.31.42ZM35.22,104.62c.32.26.72.4,1.19.4.98,0,1.46-.61,1.46-1.83,0-.55-.12-.97-.36-1.27-.24-.3-.57-.44-1-.44-.24,0-.48.06-.72.17-.24.11-.44.25-.57.42v2.56Z"/>
    <path class="cls-7" d="M43.44,105.62h-2.23c-.04-.1-.06-.2-.06-.28,0-.28.1-.42.31-.42h.44v-3.36h-.69c-.04-.13-.06-.22-.06-.29,0-.16.06-.27.19-.34s.34-.1.64-.1.54.04.73.14c.04.11.06.29.06.52v.16c.11-.25.29-.46.54-.62.25-.16.53-.24.83-.24s.52.05.69.16.25.24.25.38c0,.11-.03.22-.09.32-.06.1-.15.18-.27.25-.2-.19-.46-.29-.76-.29-.24,0-.46.07-.68.2-.22.14-.36.31-.44.53v2.59h.85c.04.1.06.2.06.28,0,.28-.1.42-.31.42Z"/>
    <path class="cls-7" d="M49.16,105.62h-2.14c-.04-.1-.06-.2-.06-.28,0-.28.1-.42.3-.42h.49v-3.36h-.74c-.04-.13-.06-.22-.06-.29,0-.17.07-.28.2-.34s.36-.09.69-.09.59.04.79.14c.04.11.06.29.06.52v3.44h.71c.04.1.06.2.06.28,0,.28-.1.42-.3.42ZM48.71,99.05c0,.17-.06.31-.18.42-.12.11-.27.17-.46.17s-.32-.06-.44-.17-.18-.26-.18-.42c0-.18.06-.33.18-.44.12-.11.27-.17.44-.17s.33.06.46.17c.12.11.18.26.18.44Z"/>
    <path class="cls-7" d="M53.68,105.62h-2.06c-.04-.1-.06-.2-.06-.28,0-.28.1-.42.31-.42h.44v-3.36h-.69c-.04-.13-.06-.22-.06-.29,0-.16.06-.27.19-.34s.34-.1.64-.1.55.04.74.14c.04.12.06.31.06.56.16-.23.39-.42.69-.57.3-.15.62-.22.95-.22,1.11,0,1.66.63,1.66,1.88v2.31h.67c.04.1.06.2.06.28,0,.28-.1.42-.31.42h-2.04c-.04-.1-.06-.2-.06-.28,0-.28.1-.42.31-.42h.43v-2.22c0-.81-.34-1.21-1.03-1.21-.53,0-.95.19-1.27.56v2.86h.68c.04.1.06.2.06.28,0,.28-.1.42-.31.42Z"/>
    <path class="cls-7" d="M62.86,105.08c0,.13-.06.24-.19.33s-.29.17-.49.21-.4.07-.61.07c-.58,0-1-.13-1.26-.39-.27-.26-.4-.67-.4-1.22v-2.5h-.74c-.04-.1-.06-.2-.06-.3,0-.28.11-.42.32-.42h.48v-1.07c0-.22.17-.32.52-.32.17,0,.31.02.42.06v1.33h1.87c.04.1.06.21.06.3,0,.28-.11.42-.32.42h-1.61v2.41c0,.63.29.95.87.95.31,0,.6-.1.86-.3.08.05.15.11.2.18.05.07.08.15.08.25Z"/>
    <path class="cls-7" d="M66.97,105.62h-2.14c-.04-.1-.06-.2-.06-.28,0-.28.1-.42.3-.42h.49v-3.36h-.74c-.04-.13-.06-.22-.06-.29,0-.17.07-.28.2-.34s.36-.09.69-.09.59.04.79.14c.04.11.06.29.06.52v3.44h.71c.04.1.06.2.06.28,0,.28-.1.42-.3.42ZM66.52,99.05c0,.17-.06.31-.18.42-.12.11-.27.17-.46.17s-.32-.06-.44-.17-.18-.26-.18-.42c0-.18.06-.33.18-.44.12-.11.27-.17.44-.17s.33.06.46.17c.12.11.18.26.18.44Z"/>
    <path class="cls-7" d="M71.48,105.62h-2.06c-.04-.1-.06-.2-.06-.28,0-.28.1-.42.31-.42h.44v-3.36h-.69c-.04-.13-.06-.22-.06-.29,0-.16.06-.27.19-.34s.34-.1.64-.1.55.04.74.14c.04.12.06.31.06.56.16-.23.39-.42.69-.57.3-.15.62-.22.95-.22,1.11,0,1.66.63,1.66,1.88v2.31h.67c.04.1.06.2.06.28,0,.28-.1.42-.31.42h-2.04c-.04-.1-.06-.2-.06-.28,0-.28.1-.42.31-.42h.43v-2.22c0-.81-.34-1.21-1.03-1.21-.53,0-.95.19-1.27.56v2.86h.68c.04.1.06.2.06.28,0,.28-.1.42-.31.42Z"/>
    <path class="cls-7" d="M80.86,100.97h1.62c.03.09.05.2.05.31,0,.26-.13.4-.39.4-.15,0-.35-.03-.62-.08.19.28.28.59.28.92,0,.51-.2.92-.6,1.22-.4.31-.92.46-1.58.46-.18,0-.35-.01-.51-.03-.16-.02-.31-.06-.44-.1-.17.02-.32.08-.44.18-.12.1-.18.22-.18.36,0,.31.28.47.85.47h1.42c1.09,0,1.64.42,1.64,1.25,0,.5-.22.9-.65,1.21-.44.31-1.01.47-1.71.47-.65,0-1.16-.12-1.55-.35-.38-.23-.57-.56-.57-.97,0-.19.05-.37.16-.54.1-.17.24-.31.42-.43-.26-.06-.46-.16-.62-.32-.15-.16-.23-.36-.23-.59s.09-.44.26-.62c.17-.18.4-.3.68-.37-.21-.14-.37-.33-.5-.56-.12-.23-.18-.49-.18-.77,0-.52.2-.95.61-1.27.4-.32.93-.49,1.59-.49.22,0,.44.02.64.06.2.04.38.1.54.18ZM80.13,105.85h-1.54c-.17.18-.26.38-.26.61,0,.28.12.5.37.65.25.16.58.24,1.01.24s.74-.08.99-.25c.25-.17.38-.39.38-.67,0-.38-.32-.57-.95-.57ZM78.41,102.49c0,.34.11.61.34.8.23.19.53.29.92.29s.69-.1.91-.29c.22-.19.32-.46.32-.8s-.11-.62-.34-.82c-.23-.2-.53-.3-.93-.3s-.68.1-.9.3c-.22.2-.33.48-.33.83Z"/>
    <path class="cls-7" d="M95.5,101.57h-.61c-.2,1.05-.53,1.91-.98,2.57l.97.74h.88c.04.09.06.19.06.29,0,.17-.05.3-.15.37-.1.07-.3.11-.61.11-.15,0-.3-.01-.43-.04-.13-.03-.25-.06-.34-.09l-.93-.73c-.69.66-1.53.98-2.51.98-.76,0-1.37-.18-1.84-.54-.47-.36-.7-.82-.7-1.39,0-.79.5-1.4,1.51-1.83-.62-.51-.93-1.07-.93-1.66,0-.53.18-.96.54-1.29s.83-.5,1.4-.5c.54,0,.98.15,1.32.46.34.31.51.71.51,1.2,0,.81-.49,1.44-1.46,1.86l2.1,1.61c.4-.6.67-1.31.78-2.12h-.88c-.04-.08-.06-.17-.06-.29,0-.27.1-.41.31-.41h2.28c.04.07.06.17.06.29,0,.27-.1.41-.31.41ZM90.96,105.02c.7,0,1.3-.23,1.81-.7l-2.41-1.89c-.71.36-1.07.8-1.07,1.35,0,.38.15.69.46.91s.71.33,1.22.33ZM89.8,100.28c0,.26.07.49.21.7.14.21.37.44.69.7.75-.36,1.13-.84,1.13-1.42,0-.3-.09-.54-.28-.72-.19-.18-.43-.27-.73-.27s-.54.1-.74.29-.29.43-.29.73Z"/>
    <path class="cls-7" d="M103.84,105.62h-2.14c-.04-.1-.06-.2-.06-.28,0-.28.1-.42.3-.42h.49v-3.36h-.74c-.04-.13-.06-.22-.06-.29,0-.17.07-.28.2-.34s.36-.09.69-.09.59.04.79.14c.04.11.06.29.06.52v3.44h.71c.04.1.06.2.06.28,0,.28-.1.42-.3.42ZM103.39,99.05c0,.17-.06.31-.18.42-.12.11-.27.17-.46.17s-.32-.06-.44-.17-.18-.26-.18-.42c0-.18.06-.33.18-.44.12-.11.27-.17.44-.17s.33.06.46.17c.12.11.18.26.18.44Z"/>
    <path class="cls-7" d="M108.36,105.62h-2.06c-.04-.1-.06-.2-.06-.28,0-.28.1-.42.31-.42h.44v-3.36h-.69c-.04-.13-.06-.22-.06-.29,0-.16.06-.27.19-.34s.34-.1.64-.1.55.04.74.14c.04.12.06.31.06.56.16-.23.39-.42.69-.57.3-.15.62-.22.95-.22,1.11,0,1.66.63,1.66,1.88v2.31h.67c.04.1.06.2.06.28,0,.28-.1.42-.31.42h-2.04c-.04-.1-.06-.2-.06-.28,0-.28.1-.42.31-.42h.43v-2.22c0-.81-.34-1.21-1.03-1.21-.53,0-.95.19-1.27.56v2.86h.68c.04.1.06.2.06.28,0,.28-.1.42-.31.42Z"/>
    <path class="cls-7" d="M117.54,105.08c0,.13-.06.24-.19.33s-.29.17-.49.21-.4.07-.61.07c-.58,0-1-.13-1.26-.39-.27-.26-.4-.67-.4-1.22v-2.5h-.74c-.04-.1-.06-.2-.06-.3,0-.28.11-.42.32-.42h.48v-1.07c0-.22.17-.32.52-.32.17,0,.31.02.42.06v1.33h1.87c.04.1.06.21.06.3,0,.28-.11.42-.32.42h-1.61v2.41c0,.63.29.95.87.95.31,0,.6-.1.86-.3.08.05.15.11.2.18.05.07.08.15.08.25Z"/>
    <path class="cls-7" d="M123.8,104.96c0,.21-.17.4-.52.56-.35.16-.75.25-1.19.25-.75,0-1.36-.22-1.81-.66-.46-.44-.68-1.06-.68-1.85,0-.74.22-1.35.67-1.82.45-.47,1.02-.7,1.72-.7.62,0,1.1.17,1.45.52.35.34.52.82.52,1.44,0,.21-.03.43-.09.67h-3.33c.01.53.17.94.46,1.24.29.3.69.44,1.2.44s.93-.17,1.27-.52c.22.1.33.25.33.44ZM121.94,101.39c-.36,0-.67.13-.92.38-.25.25-.41.59-.47,1.01h2.5s.01-.07.02-.11c0-.04,0-.08,0-.12,0-.36-.1-.65-.3-.85-.2-.21-.48-.31-.83-.31Z"/>
    <path class="cls-7" d="M130.03,100.97h1.62c.03.09.05.2.05.31,0,.26-.13.4-.38.4-.15,0-.35-.03-.62-.08.19.28.28.59.28.92,0,.51-.2.92-.6,1.22-.4.31-.92.46-1.58.46-.18,0-.35-.01-.51-.03-.16-.02-.31-.06-.44-.1-.17.02-.32.08-.44.18-.12.1-.18.22-.18.36,0,.31.28.47.84.47h1.42c1.09,0,1.64.42,1.64,1.25,0,.5-.22.9-.65,1.21s-1,.47-1.71.47c-.65,0-1.17-.12-1.55-.35-.38-.23-.58-.56-.58-.97,0-.19.05-.37.16-.54s.24-.31.42-.43c-.26-.06-.46-.16-.62-.32-.15-.16-.23-.36-.23-.59s.09-.44.26-.62c.17-.18.4-.3.69-.37-.21-.14-.37-.33-.5-.56-.12-.23-.18-.49-.18-.77,0-.52.2-.95.6-1.27.41-.32.94-.49,1.59-.49.22,0,.43.02.64.06s.38.1.54.18ZM129.3,105.85h-1.53c-.18.18-.26.38-.26.61,0,.28.12.5.37.65.25.16.59.24,1.01.24s.74-.08.99-.25c.25-.17.37-.39.37-.67,0-.38-.32-.57-.95-.57ZM127.57,102.49c0,.34.11.61.34.8.22.19.53.29.92.29s.69-.1.91-.29c.21-.19.32-.46.32-.8s-.11-.62-.34-.82c-.23-.2-.54-.3-.93-.3s-.67.1-.9.3c-.22.2-.33.48-.33.83Z"/>
    <path class="cls-7" d="M135.95,105.62h-2.23c-.04-.1-.06-.2-.06-.28,0-.28.1-.42.31-.42h.44v-3.36h-.69c-.04-.13-.06-.22-.06-.29,0-.16.06-.27.19-.34.13-.07.34-.1.64-.1s.54.04.73.14c.04.11.06.29.06.52v.16c.11-.25.29-.46.54-.62.25-.16.53-.24.83-.24s.52.05.69.16.25.24.25.38c0,.11-.03.22-.09.32-.06.1-.15.18-.27.25-.2-.19-.46-.29-.76-.29-.24,0-.46.07-.68.2-.22.14-.36.31-.44.53v2.59h.85c.04.1.06.2.06.28,0,.28-.1.42-.31.42Z"/>
    <path class="cls-7" d="M142.88,105.03c-.17.22-.4.4-.69.53-.29.13-.59.2-.92.2-.5,0-.9-.13-1.19-.38-.29-.25-.44-.6-.44-1.03s.17-.82.52-1.08.83-.39,1.45-.39c.18,0,.38.01.59.04.21.03.41.07.6.13v-.43c0-.78-.4-1.17-1.19-1.17-.58,0-1.06.2-1.44.61-.23-.09-.34-.24-.34-.44,0-.22.2-.43.59-.61s.82-.28,1.29-.28c.75,0,1.28.19,1.58.55.3.37.45.91.45,1.62v2.02h.71c.03.09.05.19.05.3,0,.15-.06.26-.18.33-.12.07-.32.1-.59.1-.17,0-.32-.01-.45-.03-.13-.02-.23-.06-.31-.1-.03-.06-.05-.13-.06-.21,0-.08-.02-.18-.02-.29ZM140.55,104.3c0,.53.33.79,1,.79.54,0,.95-.2,1.24-.61v-.9c-.29-.1-.64-.15-1.06-.15-.79,0-1.19.29-1.19.86Z"/>
    <path class="cls-7" d="M150.09,105.08c0,.13-.06.24-.19.33s-.29.17-.49.21-.4.07-.61.07c-.58,0-1-.13-1.26-.39s-.4-.67-.4-1.22v-2.5h-.74c-.04-.1-.06-.2-.06-.3,0-.28.11-.42.32-.42h.48v-1.07c0-.22.17-.32.52-.32.17,0,.31.02.42.06v1.33h1.87c.04.1.06.21.06.3,0,.28-.11.42-.32.42h-1.61v2.41c0,.63.29.95.87.95.31,0,.6-.1.86-.3.08.05.15.11.2.18.05.07.08.15.08.25Z"/>
    <path class="cls-7" d="M156.35,104.96c0,.21-.17.4-.52.56-.35.16-.74.25-1.19.25-.75,0-1.36-.22-1.81-.66-.46-.44-.69-1.06-.69-1.85,0-.74.22-1.35.67-1.82.45-.47,1.02-.7,1.72-.7.62,0,1.1.17,1.45.52s.52.82.52,1.44c0,.21-.03.43-.09.67h-3.33c.01.53.17.94.46,1.24s.69.44,1.2.44.93-.17,1.28-.52c.22.1.33.25.33.44ZM154.49,101.39c-.36,0-.67.13-.92.38-.26.25-.41.59-.46,1.01h2.5s.01-.07.02-.11c0-.04,0-.08,0-.12,0-.36-.1-.65-.3-.85-.2-.21-.48-.31-.83-.31Z"/>
    <path class="cls-7" d="M162.62,104.99c-.17.24-.41.43-.7.56-.29.14-.62.21-.98.21-.63,0-1.13-.21-1.49-.64-.35-.43-.53-1.02-.53-1.78s.2-1.42.61-1.89c.41-.47.95-.71,1.63-.71.57,0,1.04.17,1.4.52v-2.42h-.76c-.02-.06-.04-.12-.05-.17-.01-.05-.02-.09-.02-.12,0-.17.07-.28.2-.34.14-.06.37-.09.7-.09s.6.04.8.14c.04.11.06.29.06.52v6.17h.71c.03.09.05.19.05.3,0,.15-.06.26-.18.33-.12.07-.32.1-.6.1-.36,0-.62-.04-.78-.14-.05-.13-.07-.31-.07-.54ZM159.9,103.31c0,1.14.46,1.71,1.38,1.71.24,0,.48-.06.71-.17.24-.11.43-.25.56-.43v-2.55c-.33-.26-.72-.4-1.18-.4s-.83.16-1.09.48c-.26.32-.39.77-.39,1.35Z"/>
    <path class="cls-7" d="M170.17,102.12c0-.45.18-.8.54-1.03.36-.24.8-.36,1.32-.36s.94.08,1.3.25c.37.16.55.35.55.56,0,.2-.12.34-.37.43-.2-.19-.42-.33-.67-.42-.25-.09-.54-.14-.87-.14-.61,0-.92.22-.92.67,0,.17.07.3.21.41.14.1.38.19.72.26l.62.13c.54.11.91.27,1.13.49.22.21.33.5.33.87,0,.5-.19.88-.56,1.14s-.84.39-1.4.39-1.03-.1-1.43-.29c-.4-.19-.61-.42-.61-.67,0-.1.04-.19.11-.27.07-.08.17-.14.28-.18.19.24.42.42.7.54.28.12.61.18.99.18.31,0,.55-.06.73-.19s.27-.3.27-.53c0-.18-.07-.32-.2-.42-.13-.1-.36-.19-.67-.26l-.62-.13c-1-.21-1.51-.68-1.51-1.42Z"/>
    <path class="cls-7" d="M180.76,104.96c0,.21-.17.4-.52.56-.35.16-.74.25-1.19.25-.75,0-1.36-.22-1.81-.66-.46-.44-.69-1.06-.69-1.85,0-.74.22-1.35.67-1.82.45-.47,1.02-.7,1.72-.7.62,0,1.1.17,1.45.52s.52.82.52,1.44c0,.21-.03.43-.09.67h-3.33c.01.53.17.94.46,1.24s.69.44,1.2.44.93-.17,1.28-.52c.22.1.33.25.33.44ZM178.9,101.39c-.36,0-.67.13-.92.38-.26.25-.41.59-.46,1.01h2.5s.01-.07.02-.11c0-.04,0-.08,0-.12,0-.36-.1-.65-.3-.85-.2-.21-.48-.31-.83-.31Z"/>
    <path class="cls-7" d="M185.51,105.62h-2.23c-.04-.1-.06-.2-.06-.28,0-.28.1-.42.31-.42h.44v-3.36h-.69c-.04-.13-.06-.22-.06-.29,0-.16.06-.27.19-.34.13-.07.34-.1.64-.1s.54.04.73.14c.04.11.06.29.06.52v.16c.11-.25.29-.46.54-.62.25-.16.53-.24.83-.24s.52.05.69.16.25.24.25.38c0,.11-.03.22-.09.32-.06.1-.15.18-.27.25-.2-.19-.46-.29-.76-.29-.24,0-.46.07-.68.2-.22.14-.36.31-.44.53v2.59h.85c.04.1.06.2.06.28,0,.28-.1.42-.31.42Z"/>
    <path class="cls-7" d="M192.41,105.62h-.83l-1.77-4.08h-.61c-.04-.1-.06-.19-.06-.27,0-.27.1-.41.3-.41h2.13c.04.1.06.19.06.27,0,.27-.1.41-.3.41h-.53l1.27,3.12,1.31-3.12h-.72c-.04-.1-.06-.19-.06-.27,0-.27.1-.41.3-.41h1.93c.04.1.06.19.06.27,0,.27-.1.41-.3.41h-.39l-1.81,4.08Z"/>
    <path class="cls-7" d="M198.96,105.62h-2.14c-.04-.1-.06-.2-.06-.28,0-.28.1-.42.3-.42h.49v-3.36h-.74c-.04-.13-.06-.22-.06-.29,0-.17.07-.28.2-.34s.36-.09.69-.09.58.04.79.14c.04.11.06.29.06.52v3.44h.71c.04.1.06.2.06.28,0,.28-.1.42-.3.42ZM198.51,99.05c0,.17-.06.31-.18.42-.12.11-.27.17-.46.17s-.32-.06-.44-.17-.18-.26-.18-.42c0-.18.06-.33.18-.44.12-.11.27-.17.44-.17s.33.06.46.17c.12.11.18.26.18.44Z"/>
    <path class="cls-7" d="M202.43,103.24c0,1.2.51,1.8,1.54,1.8.47,0,.87-.17,1.19-.52.23.08.34.23.34.45,0,.2-.17.39-.51.55-.34.16-.72.25-1.13.25-.75,0-1.34-.22-1.77-.65-.43-.43-.64-1.03-.64-1.8s.22-1.41.67-1.88c.45-.47,1.04-.7,1.78-.7.42,0,.78.09,1.08.26.3.17.45.35.45.54,0,.09-.04.18-.11.27-.07.09-.17.14-.3.17-.28-.34-.64-.51-1.1-.51s-.83.16-1.1.48c-.27.32-.41.75-.41,1.31Z"/>
    <path class="cls-7" d="M211.92,104.96c0,.21-.17.4-.52.56-.35.16-.74.25-1.19.25-.75,0-1.36-.22-1.81-.66-.46-.44-.69-1.06-.69-1.85,0-.74.22-1.35.67-1.82.45-.47,1.02-.7,1.72-.7.62,0,1.1.17,1.45.52s.52.82.52,1.44c0,.21-.03.43-.09.67h-3.33c.01.53.17.94.46,1.24s.69.44,1.2.44.93-.17,1.28-.52c.22.1.33.25.33.44ZM210.06,101.39c-.36,0-.67.13-.92.38-.26.25-.41.59-.46,1.01h2.5s.01-.07.02-.11c0-.04,0-.08,0-.12,0-.36-.1-.65-.3-.85-.2-.21-.48-.31-.83-.31Z"/>
    <path class="cls-7" d="M214.57,102.12c0-.45.18-.8.54-1.03.36-.24.8-.36,1.32-.36s.94.08,1.3.25c.37.16.55.35.55.56,0,.2-.12.34-.37.43-.2-.19-.42-.33-.67-.42-.25-.09-.54-.14-.87-.14-.61,0-.92.22-.92.67,0,.17.07.3.21.41.14.1.38.19.72.26l.62.13c.54.11.91.27,1.13.49.22.21.33.5.33.87,0,.5-.19.88-.56,1.14s-.84.39-1.4.39-1.03-.1-1.43-.29c-.4-.19-.61-.42-.61-.67,0-.1.04-.19.11-.27.07-.08.17-.14.28-.18.19.24.42.42.7.54.28.12.61.18.99.18.31,0,.55-.06.73-.19s.27-.3.27-.53c0-.18-.07-.32-.2-.42-.13-.1-.36-.19-.67-.26l-.62-.13c-1-.21-1.51-.68-1.51-1.42Z"/>
  </g>
</svg>