<?xml version="1.0" encoding="utf-8"?>
<!-- Generator: Adobe Illustrator 23.1.0, SVG Export Plug-In . SVG Version: 6.00 Build 0)  -->
<svg version="1.1" id="Layer_1" xmlns:ns0="http://www.w3.org/2000/svg"
	 xmlns="http://www.w3.org/2000/svg" xmlns:xlink="http://www.w3.org/1999/xlink" x="0px" y="0px" viewBox="0 0 252 113.6"
	 style="enable-background:new 0 0 252 113.6;" xml:space="preserve">
<style type="text/css">
	.st0{opacity:0.82;}
	.st1{fill:#154060;}
	.st2{fill:#154060;stroke:#010101;stroke-width:0.17;}
	.st3{fill:#ED1C24;stroke:#231F20;stroke-miterlimit:10;}
	.st4{fill:#FFFFFF;stroke:#FFFFFF;stroke-width:0.5;stroke-miterlimit:10;}
	.st5{fill:#231F20;}
</style>
<g class="st0">
	<polygon class="st1" points="232,88.3 220.4,88.2 220.6,51.8 232.3,51.9 	"/>
	<path class="st1" d="M104.4,48.8h9.6v1.9h2.8v18.7l-12.6,0.1c0,0-0.6-17.3,0-17.7s0,0,0,0v-3"/>
	<path class="st1" d="M213.3,43.7h-0.4l-0.2-17.4l-0.4,17.4H212l-3.6,3.9v18.7l-0.5,0.1h-1.4V77h9.6V47.9
		C216.2,47.9,213,43.7,213.3,43.7L213.3,43.7z"/>
	<path class="st1" d="M40,60.2v-7.5h1.2v-2.6h0.5v-1.3l0.4-0.5v-1.1h1.8l3.7,0.6v1.9h2.1l0.5,0.5h7v16c0,0-13.4-2.6-13.4,0s-5,0-5,0
		S40.2,60.2,40,60.2L40,60.2z"/>
	<rect x="15.8" y="71.6" class="st1" width="226.7" height="23.5"/>
	<rect x="75.8" y="60.9" class="st1" width="75.8" height="24.9"/>
	<polygon class="st1" points="99.9,16.8 99.9,16.1 98.7,15.8 98.7,14.8 98.5,14.8 98.5,15.7 97.3,15.3 97.3,13.2 97.2,13.2 
		97.2,15.3 97,15.2 95.6,15.2 95.6,12.9 95.4,12.9 95.4,15.2 94.5,15.1 94.5,13.8 94.3,13.8 94.3,15.1 93.3,15.1 93.3,4 93,4 
		93,15.1 92.8,15.1 92.8,14.2 92.7,14.2 92.7,15.1 92,15.1 92,14.3 91.5,14.3 91.5,15.1 90.8,15.1 90.5,15.1 90.5,14.4 90.3,14.4 
		90.3,15.1 89.1,15.1 89.1,14.1 88.9,14.1 88.9,15.1 88.1,15.1 88.1,5.8 87.8,5.8 87.8,15.1 86.8,15.1 86.8,14.4 86.5,14.4 
		86.5,15.1 85.2,15.1 85.2,14.4 84.9,14.4 84.9,15.2 81.8,16.2 81.8,17.3 81.4,17.4 81.4,19.7 81.8,19.6 81.8,63.3 99.6,63.3 
		99.9,19.6 100.3,19.7 100.3,16.9 	"/>
	<polygon class="st1" points="127.8,38 127.8,34.9 127.2,34.3 127.2,30.5 126.8,30 126.8,27.2 125.8,27.2 125.8,25.8 125.5,26.2 
		125.5,25 124.9,24.8 124.9,23.8 124.7,23.8 124.7,24.7 123.9,24.5 123.9,23.1 123.8,23.1 123.8,24.5 122.5,24.1 122.5,23.2 
		122.3,23.2 122.3,24 120.9,23.6 120.9,22 120.7,22 120.7,23.6 120.2,23.4 119.6,23.4 119.6,22.6 119.4,22.6 119.4,23.4 118.4,23.4 
		118.4,25.1 118.2,25.5 118.2,27.1 117,27.1 117,29.7 116.2,29.7 116.2,33.5 115.6,33.5 115.6,36.9 114.3,36.9 114.3,64.4 
		112.2,64.4 112.2,74.9 112.8,75.5 112.1,75.9 114.7,75.9 128.7,75.9 128.7,71.6 128.7,38 	"/>
	<polygon class="st1" points="128.2,45.3 130.6,45.3 130.6,43.6 132,43.6 132,42 133.9,42 134.7,41.2 136.7,41.2 136.7,32.1 
		141.8,29.7 144.1,30.4 144.1,36 146,36 146,39.7 147.6,39.7 147.6,42.5 149.1,42.5 149.1,64.4 149.1,76.1 125.9,76.1 	"/>
	<rect x="141.9" y="25.6" class="st1" width="0.3" height="5.3"/>
	<rect x="139.1" y="28.9" class="st1" width="1.1" height="3"/>
	<path class="st2" d="M148.9,45.3"/>
	<rect x="163.1" y="34.7" class="st1" width="2.1" height="0.4"/>
	<rect x="163.1" y="35.5" class="st1" width="2.1" height="0.4"/>
	<rect x="163.1" y="36.3" class="st1" width="2.1" height="0.4"/>
	<rect x="163.1" y="37" class="st1" width="2.1" height="0.4"/>
	<rect x="163.1" y="37.8" class="st1" width="2.1" height="0.4"/>
	<path class="st1" d="M178.4,58.9h-2.2V27.4h-1.4v-3l0.7-1c0.3-0.2,0.5-0.4,0.5-0.6c0-0.8-2.9-1.5-6.4-1.5s-6.4,0.7-6.4,1.5
		c0,0.3,0.3,0.5,0.7,0.7l0.8,1v4H163v0.7h0.5v0.3h-0.4v0.4h0.4v0.4h-0.4v0.4h0.4v0.4h-0.4v0.4h0.4v0.4h-0.4V32h0.4v0.4h-0.4v0.4h0.4
		v0.4h-0.4v0.4h0.4V34h-0.4v0.4h0.4v4.5h-2.6v5.3h-5.1v1.5L148,46l-5.2,2v34.7L143,82l37-1.1v-22H178.4L178.4,58.9z M165.9,24.3H165
		v-1h0.9V24.3z M167.1,24.2h-0.9v-1h0.9V24.2z M168.3,24.2h-0.9v-1h0.9V24.2z M169.5,24.2h-0.9v-1h0.9V24.2z M170.7,24.2h-0.9v-1
		h0.9V24.2z M171.9,24.2H171v-1h0.9V24.2z M173.2,24.2h-0.9v-1h0.9V24.2z M174.4,24.2h-0.9v-1h0.9V24.2z"/>
	<polygon class="st1" points="178.9,85.2 178.9,52 181.9,52 181.9,49.9 186.8,49.9 186.8,48.6 189.4,48.6 189.4,50.1 192.4,50.1 
		192.4,84.2 	"/>
	<path class="st1" d="M182.7,57.5h8.4V47l4.9-3.6c0,0,5.4,2.8,5,2.8s0,2.3,0,2.3h1.3v9.6h2.9v3.2h5.2v-2h1.5v-0.7h3.9v2.1h1.3v-3.2
		h1.8v-1.1h2.4v1.1h2.3v-1.1h2.4v2.1h7.3v3h3.7v2.3h2.3v1.4h2.3v4.6c0,0,0.3,11.8,0,11.8h-67V58.5h6.3L182.7,57.5L182.7,57.5z"/>
	<polygon class="st1" points="59.6,54.7 59.6,46.6 61,46.6 61,45.5 59.7,45.5 59.7,44.7 65.5,44.7 66.4,45 66.4,42.9 69.8,42.9 
		69.8,42.1 70.9,42.1 70.9,43 72,43.7 72,45.4 72.8,45.4 72.8,46.7 74.6,46.7 74.6,44.8 75.8,44.8 75.8,42.7 80.5,42.7 83.8,42.7 
		83.8,58.3 86.1,58.3 86.1,65.7 86.1,71.5 86.1,75.9 58.2,75.9 44.3,75.9 44.3,60.5 54.1,60.5 54.1,54.1 57.5,54.1 	"/>
	<polygon class="st1" points="21.6,66.2 21.6,47.9 26.4,47.9 26.4,45.4 29.2,45.4 29.2,47.6 31.4,47.6 31.4,50.9 33.2,50.9 
		33.2,49.7 34.8,49.7 34.8,55.7 37.1,55.7 37.1,58.2 41.2,58.2 41.2,64.2 47.7,64.2 47.7,75.2 20,75.2 20,65.8 	"/>
	<rect x="12.1" y="62.6" class="st1" width="5.8" height="32.6"/>
	<path class="st1" d="M15.3,65.3V49.5h-1.2v-0.9h0.7v-2.1h0.8V45h-3.7v1.5h0.8v2.1h0.7v0.9h-0.9v24.4h-0.4v1.9H17V65.3H15.3
		L15.3,65.3z M10.8,32l-0.6,12h-0.1v0.3H9.6v1.3h1.9v-1.3h-0.2L10.8,32L10.8,32z"/>
</g>
<g>
	<path class="st3" d="M52.4,85.9H41.7v-1.4c0.9,0,1.6-0.1,2-0.3c0.4-0.2,0.7-0.4,0.8-0.8s0.2-0.8,0.2-1.4V68.6l-8,17.3h-1l-8.1-17.3
		v12.7c0,0.7,0,1.2,0.1,1.5s0.2,0.7,0.4,0.9s0.5,0.4,0.9,0.6c0.4,0.1,1,0.2,1.7,0.2v1.4h-7.9v-1.4c0.8,0,1.3-0.1,1.8-0.2
		c0.4-0.1,0.7-0.3,0.9-0.6s0.3-0.6,0.3-0.9s0.1-0.9,0.1-1.5v-12c0-0.9,0-1.6-0.1-1.9c-0.1-0.4-0.4-0.7-0.8-0.9s-1.1-0.3-2.1-0.3
		v-1.4h7.8l7.1,15l7.1-15h7.6v1.4c-1.3,0-2.2,0.2-2.5,0.6c-0.4,0.4-0.6,1-0.6,1.9V82c0,0.6,0.1,1,0.2,1.4c0.1,0.4,0.4,0.6,0.9,0.8
		s1.1,0.3,2,0.3L52.4,85.9L52.4,85.9z"/>
	<path class="st3" d="M70.2,79.8c0,0.7-0.1,1.4-0.4,2.1s-0.7,1.4-1.3,2.1c-0.6,0.7-1.3,1.2-2.2,1.7s-1.9,0.6-3,0.6S61,86,59.9,85.6
		c-1.1-0.5-2.1-1.2-2.8-2.2c-0.3,0.8-0.5,1.5-0.6,2.2h-1.4v-7.3h1.4c0.3,1.1,0.6,2,1.1,2.9s1.1,1.7,2,2.4c0.8,0.7,1.9,1,3.1,1
		c1.1,0,1.9-0.3,2.6-0.9c0.6-0.6,1-1.3,1-2.2c0-0.5-0.1-0.9-0.3-1.3c-0.2-0.4-0.5-0.7-0.9-1s-0.9-0.6-1.5-1
		c-0.7-0.3-1.4-0.7-2.2-1.1c-1.3-0.6-2.3-1.2-3.2-1.8c-0.8-0.6-1.5-1.2-1.9-1.8c-0.4-0.6-0.7-1.1-0.9-1.7s-0.4-1-0.4-1.5
		c0-0.9,0.3-1.9,0.8-2.8s1.3-1.7,2.3-2.3c1-0.6,2.1-0.9,3.4-0.9c1,0,1.9,0.2,2.8,0.7c0.9,0.4,1.7,1.1,2.3,1.8
		c0.2-0.4,0.4-1.1,0.5-1.8h1.5v5.9h-1.5c-1.1-3.2-2.9-4.8-5.5-4.8c-0.9,0-1.7,0.3-2.3,0.8s-0.9,1.1-0.9,1.9c0,0.6,0.2,1.2,0.5,1.6
		c0.4,0.5,0.8,0.8,1.4,1.2c0.6,0.3,1.5,0.8,2.8,1.4c1.6,0.7,2.8,1.4,3.7,1.9s1.6,1.2,2.2,2.1C69.9,77.7,70.2,78.7,70.2,79.8
		L70.2,79.8z"/>
	<path class="st3" d="M91.5,78.9l-0.2,7h-19v-1.4c1.3,0,2.2-0.2,2.5-0.6c0.4-0.4,0.6-1,0.6-1.9V68.6c0-0.6-0.1-1.1-0.2-1.4
		s-0.4-0.6-0.8-0.8c-0.4-0.2-1.1-0.3-2.1-0.3v-1.4H90l0.3,5.5h-1.4c-0.3-1.2-0.7-2.1-1.1-2.6s-0.9-0.8-1.4-1s-1.3-0.2-2.4-0.2h-4
		v7.5h2.2c0.7,0,1.3-0.1,1.7-0.2c0.4-0.1,0.6-0.4,0.8-0.8S85,72,85,71.2h1.5v7.1h-1.4c0-0.8-0.2-1.4-0.3-1.7
		c-0.2-0.4-0.4-0.6-0.8-0.8s-0.9-0.2-1.7-0.2H80v5c0,0.8,0,1.4,0.1,1.8s0.2,0.7,0.3,1c0.2,0.3,0.5,0.4,0.9,0.6
		c0.4,0.1,1,0.2,1.8,0.2h1.7c0.7,0,1.4-0.1,2.1-0.3c0.7-0.2,1.3-0.7,1.9-1.4c0.6-0.8,1.1-1.9,1.3-3.6L91.5,78.9L91.5,78.9z"/>
	<path class="st3" d="M125.4,77.5c-0.6,0.1-1.1,0.2-1.4,0.3s-0.5,0.4-0.6,0.7c-0.1,0.3-0.2,0.8-0.2,1.5v5c-1.5,0-3.2,0.2-4.9,0.6
		c-1.3,0.3-2.2,0.5-2.9,0.6c-0.6,0.1-1.4,0.2-2.3,0.2c-2.3,0-4.3-0.5-5.9-1.6s-2.9-2.5-3.7-4.2c-0.8-1.7-1.2-3.4-1.2-5.2
		c0-2.1,0.5-3.9,1.5-5.6s2.3-3,3.9-4c1.7-1,3.5-1.4,5.5-1.4c2.4,0,4.6,0.8,6.6,2.5c0.2-0.4,0.4-1.1,0.6-1.8h1.5l0.2,7h-1.4
		c-0.2-1.1-0.6-2-1.2-2.9s-1.4-1.6-2.3-2.1s-1.9-0.8-3-0.8c-0.8,0-1.6,0.1-2.3,0.4s-1.5,0.8-2.1,1.4s-1.2,1.6-1.6,2.8
		s-0.6,2.6-0.6,4.4c0,1.5,0.2,2.9,0.5,4.3s0.9,2.6,1.9,3.5c1,1,2.3,1.5,4.1,1.5c1.4,0,2.4-0.2,3.1-0.7s1.2-1,1.4-1.6
		c0.2-0.6,0.3-1.3,0.3-2.1c0-0.7-0.1-1.3-0.2-1.6c-0.1-0.3-0.4-0.6-0.8-0.7c-0.4-0.2-1-0.2-1.9-0.2v-1.4h9.5L125.4,77.5L125.4,77.5z
		"/>
	<path class="st3" d="M139.7,75c0,0.6-0.2,1.1-0.6,1.4c-0.4,0.3-0.8,0.5-1.3,0.5c-0.6,0-1.1-0.3-1.6-0.9c-0.2-0.3-0.4-0.4-0.5-0.6
		c-0.1-0.1-0.3-0.2-0.6-0.2c-0.8,0-1.4,0.4-1.9,1.3s-0.7,1.8-0.7,2.8V82c0,0.9,0.1,1.5,0.3,1.8s0.8,0.5,1.8,0.5h0.8v1.4h-9.8v-1.4
		h0.8c0.9,0,1.4-0.2,1.6-0.5c0.2-0.3,0.3-0.9,0.3-1.8v-4.6c0-0.7-0.1-1.2-0.2-1.5c-0.1-0.3-0.4-0.5-0.8-0.6s-0.9-0.2-1.8-0.2v-1.4
		l6.1-1.3c0.2,0.5,0.3,1.7,0.4,3.4c0.3-0.6,0.7-1.2,1.1-1.7c0.5-0.5,1-0.9,1.6-1.2c0.6-0.3,1.2-0.5,1.8-0.5c0.9,0,1.5,0.2,2,0.7
		S139.7,74.4,139.7,75L139.7,75z"/>
	<path class="st3" d="M157,82.6c0,0.8-0.2,1.5-0.5,2s-0.8,1-1.3,1.2s-1.2,0.4-1.9,0.4c-0.9,0-1.6-0.2-2.2-0.6s-0.9-0.9-1.1-1.5
		c-1.8,1.4-3.5,2.1-5.3,2.1c-1.1,0-2.1-0.3-2.8-0.8s-1.1-1.3-1.1-2.2c0-0.7,0.2-1.4,0.6-2c0.4-0.6,0.9-1.1,1.7-1.6s1.6-0.9,2.7-1.3
		s2.3-0.7,3.9-1.1v-0.9c0-0.7-0.2-1.3-0.5-1.8s-1-0.6-1.9-0.6c-0.8,0-1.4,0.2-1.7,0.5s-0.6,0.8-0.7,1.5c-0.1,0.5-0.2,0.9-0.5,1.2
		s-0.7,0.5-1.4,0.5c-0.4,0-0.8-0.1-1.2-0.4s-0.5-0.6-0.5-1.1c0-1,0.5-1.8,1.6-2.5s2.7-1.1,4.9-1.1c2.3,0,3.9,0.4,4.8,1.2
		c0.9,0.8,1.3,1.8,1.3,3.1v5c0,0.6,0,1.1,0.1,1.4s0.1,0.5,0.3,0.7s0.4,0.2,0.7,0.2s0.5-0.1,0.7-0.4s0.3-0.6,0.3-1L157,82.6L157,82.6
		z M149.8,82.8v-3.9c-2,0.6-3.3,1.2-3.8,1.8s-0.8,1.2-0.8,1.8c0,0.5,0.1,0.9,0.4,1.2s0.7,0.4,1.2,0.4c0.6,0,1.1-0.1,1.5-0.4
		S149.3,83.2,149.8,82.8L149.8,82.8z"/>
	<path class="st3" d="M175.1,79.3c0,1.3-0.3,2.5-0.9,3.6c-0.6,1.1-1.4,2-2.5,2.6s-2.3,1-3.6,1c-1.6,0-3.1-0.6-4.3-1.7v5
		c0,0.6,0,1,0.1,1.3s0.3,0.5,0.5,0.7c0.3,0.2,0.7,0.2,1.3,0.2h0.9v1.4h-9.1V92c0.7,0,1.2-0.1,1.5-0.2s0.5-0.3,0.6-0.6
		c0.1-0.3,0.1-0.8,0.1-1.4V77.5c0-0.6,0-1.1-0.1-1.3c-0.1-0.3-0.3-0.5-0.6-0.6s-0.8-0.2-1.5-0.2V74l6.1-1.3c0.1,0.4,0.2,1.1,0.2,2
		c0.7-0.7,1.4-1.2,2.1-1.5c0.7-0.3,1.6-0.5,2.6-0.5c1.1,0,2,0.2,2.8,0.6s1.5,0.9,2.1,1.5s1,1.3,1.3,2.2S175.1,78.4,175.1,79.3
		L175.1,79.3z M170.8,79.1c0-3.2-1.1-4.8-3.4-4.8c-0.7,0-1.4,0.2-2,0.6s-1.1,0.9-1.6,1.6v6.2c0.4,0.6,0.9,1.1,1.6,1.5s1.3,0.6,2,0.6
		C169.7,84.7,170.8,82.9,170.8,79.1L170.8,79.1z"/>
	<path class="st3" d="M194.6,85.9h-8.1v-1.4c0.7,0,1.2-0.1,1.5-0.4s0.4-0.6,0.4-1.1v-5.3c0-0.5,0-1-0.1-1.4s-0.3-0.8-0.5-1.1
		s-0.7-0.5-1.4-0.5c-0.5,0-1,0.1-1.5,0.4s-0.9,0.6-1.2,1c-0.3,0.5-0.5,0.9-0.6,1.4s-0.1,1-0.1,1.6v2.7c0,0.7,0,1.3,0.1,1.6
		c0.1,0.3,0.2,0.6,0.5,0.8s0.7,0.3,1.3,0.3V86h-8.2v-1.4c0.7,0,1.2-0.1,1.6-0.2s0.5-0.4,0.6-0.7s0.1-0.8,0.1-1.4V69.1
		c0-0.8-0.1-1.3-0.4-1.6s-0.9-0.4-1.9-0.4v-1.4l6.3-1.3V75c0.6-0.7,1.3-1.2,1.9-1.6s1.6-0.7,2.8-0.7c0.5,0,1.1,0.1,1.6,0.2
		c0.5,0.2,1,0.4,1.5,0.7c0.4,0.3,0.8,0.7,0.9,1c0.4,0.8,0.6,1.8,0.6,3v4.7c0,0.9,0.1,1.5,0.3,1.8s0.8,0.5,1.8,0.5L194.6,85.9
		L194.6,85.9z"/>
	<path class="st3" d="M204.4,85.9h-8.5v-1.4h0.5c0.6,0,1.1-0.1,1.3-0.3s0.4-0.4,0.5-0.7c0.1-0.3,0.1-0.8,0.1-1.3v-4.7
		c0-0.7,0-1.1-0.1-1.4s-0.3-0.5-0.6-0.6s-0.9-0.2-1.7-0.2v-1.4l6.4-1.3v9.6c0,0.9,0.1,1.5,0.3,1.8s0.8,0.5,1.8,0.5V85.9L204.4,85.9z
		 M202.7,66.4c0,0.6-0.2,1.2-0.7,1.6c-0.4,0.4-1,0.7-1.6,0.7s-1.1-0.2-1.6-0.7s-0.7-1-0.7-1.6s0.2-1.2,0.7-1.6
		c0.4-0.4,1-0.7,1.6-0.7s1.2,0.2,1.6,0.7S202.7,65.8,202.7,66.4L202.7,66.4z"/>
	<path class="st3" d="M220.2,82.8c-1.3,2.5-3.3,3.7-6.1,3.7c-1.3,0-2.6-0.3-3.7-0.8c-1.2-0.5-2.1-1.3-2.8-2.3s-1.1-2.2-1.1-3.6
		c0-0.9,0.2-1.8,0.6-2.7s0.9-1.6,1.7-2.3c0.7-0.7,1.6-1.2,2.6-1.6s2.1-0.6,3.2-0.6c1.4,0,2.7,0.3,3.8,0.9s1.6,1.4,1.6,2.4
		c0,0.5-0.2,0.8-0.5,1.2c-0.3,0.3-0.7,0.5-1.2,0.5s-0.8-0.1-1-0.3c-0.2-0.2-0.4-0.4-0.5-0.6s-0.2-0.6-0.3-1.1s-0.4-0.9-0.7-1.1
		S215,74,214.5,74c-0.9,0-1.8,0.3-2.5,1.1c-0.7,0.7-1.1,2-1.1,4c0,1,0.1,2,0.4,2.9s0.8,1.6,1.4,2.1c0.6,0.5,1.4,0.8,2.4,0.8
		s1.8-0.3,2.4-0.8c0.5-0.5,1-1.1,1.4-1.8L220.2,82.8L220.2,82.8z"/>
	<path class="st3" d="M235.3,82.2c0,0.9-0.3,1.7-0.8,2.3s-1.3,1.1-2.2,1.4s-2,0.5-3.2,0.5c-0.8,0-1.7-0.1-2.5-0.2
		c-0.8-0.2-1.6-0.4-2.2-0.7l-0.6,0.9h-1.2l-0.2-4.1h1.3c0.2,0.7,0.8,1.3,1.6,1.9s2,0.8,3.6,0.8c0.4,0,0.8,0,1.3-0.1s0.9-0.2,1.3-0.5
		s0.6-0.7,0.6-1.2s-0.2-0.8-0.6-1c-0.4-0.2-1.3-0.5-2.4-0.8c-1.4-0.4-2.6-0.7-3.6-1s-1.7-0.8-2.3-1.4s-1-1.4-1-2.4
		c0-1.2,0.6-2.2,1.7-2.9c1.1-0.7,2.6-1.1,4.5-1.1c1.1,0,2.1,0.1,2.8,0.3c0.7,0.2,1.3,0.4,1.7,0.6l0.4-0.8h1.3v3.6h-1.3
		c-0.1-0.4-0.4-0.8-0.8-1.2c-0.4-0.4-0.9-0.6-1.6-0.8c-0.7-0.2-1.5-0.3-2.3-0.3c-0.7,0-1.5,0.1-2.2,0.2c-0.7,0.2-1.1,0.5-1.1,1.1
		c0,0.2,0.1,0.4,0.2,0.6c0.1,0.2,0.4,0.3,0.7,0.4s0.9,0.3,1.8,0.5c0.9,0.2,1.4,0.3,1.6,0.4c1.7,0.4,3.1,1,4.2,1.6
		S235.3,80.6,235.3,82.2L235.3,82.2z"/>
</g>
<g>
	<path class="st4" d="M51.9,85.1H41.3v-1.4c0.9,0,1.6-0.1,2-0.3c0.4-0.2,0.7-0.4,0.8-0.8s0.2-0.8,0.2-1.4V67.8l-8,17.3h-1l-8.1-17.3
		v12.7c0,0.7,0,1.2,0.1,1.5s0.2,0.7,0.4,0.9s0.5,0.4,0.9,0.6c0.4,0.1,1,0.2,1.7,0.2v1.4h-7.9v-1.4c0.8,0,1.3-0.1,1.8-0.2
		c0.4-0.1,0.7-0.3,0.9-0.6s0.3-0.6,0.3-0.9s0.1-0.9,0.1-1.5V68.4c0-0.9,0-1.6-0.1-1.9c-0.1-0.4-0.4-0.7-0.8-0.9s-1.1-0.3-2.1-0.3
		v-1.4h7.8l7.1,15l7.1-15h7.6v1.4c-1.3,0-2.2,0.2-2.5,0.6c-0.4,0.4-0.6,1-0.6,1.9v13.4c0,0.6,0.1,1,0.2,1.4c0.1,0.4,0.4,0.6,0.9,0.8
		s1.1,0.3,2,0.3L51.9,85.1L51.9,85.1z"/>
	<path class="st4" d="M69.7,79c0,0.7-0.1,1.4-0.4,2.1s-0.7,1.4-1.3,2.1c-0.6,0.7-1.3,1.2-2.2,1.7s-1.9,0.6-3,0.6s-2.3-0.3-3.4-0.7
		c-1.1-0.5-2.1-1.2-2.8-2.2c-0.3,0.8-0.5,1.5-0.6,2.2h-1.4v-7.3H56c0.3,1.1,0.6,2,1.1,2.9s1.1,1.7,2,2.4c0.8,0.7,1.9,1,3.1,1
		c1.1,0,1.9-0.3,2.6-0.9c0.6-0.6,1-1.3,1-2.2c0-0.5-0.1-0.9-0.3-1.3c-0.2-0.4-0.5-0.7-0.9-1s-0.9-0.6-1.5-1
		c-0.7-0.3-1.4-0.7-2.2-1.1c-1.3-0.6-2.3-1.2-3.2-1.8c-0.8-0.6-1.5-1.2-1.9-1.8c-0.4-0.6-0.7-1.1-0.9-1.7s-0.2-1.1-0.2-1.6
		c0-0.9,0.3-1.9,0.8-2.8s1.3-1.7,2.3-2.3c1-0.6,2.1-0.9,3.4-0.9c1,0,1.9,0.2,2.8,0.7c0.9,0.4,1.7,1.1,2.3,1.8
		c0.2-0.4,0.4-1.1,0.5-1.8h1.5V70h-1.5c-1.1-3.2-2.9-4.8-5.5-4.8c-0.9,0-1.7,0.3-2.3,0.8s-0.9,1.1-0.9,1.9c0,0.6,0.2,1.2,0.5,1.6
		c0.4,0.5,0.8,0.8,1.4,1.2c0.6,0.3,1.5,0.8,2.8,1.4c1.6,0.7,2.8,1.4,3.7,1.9s1.6,1.2,2.2,2.1C69.4,76.8,69.7,77.8,69.7,79L69.7,79z"
		/>
	<path class="st4" d="M91,78.1l-0.2,7h-19v-1.4c1.3,0,2.2-0.2,2.5-0.6c0.4-0.4,0.6-1,0.6-1.9V67.8c0-0.6-0.1-1.1-0.2-1.4
		s-0.4-0.6-0.8-0.8c-0.4-0.2-1.1-0.3-2.1-0.3v-1.4h17.7l0.3,5.5h-1.4c-0.3-1.2-0.7-2.1-1.1-2.6s-0.9-0.8-1.4-1s-1.3-0.2-2.4-0.2h-4
		v7.5h2.2c0.7,0,1.3-0.1,1.7-0.2c0.4-0.1,0.6-0.4,0.8-0.8s0.3-0.9,0.3-1.7H86v7.1h-1.4c0-0.8-0.2-1.4-0.3-1.7
		c-0.2-0.4-0.4-0.6-0.8-0.8s-0.9-0.2-1.7-0.2h-2.2v5c0,0.8,0,1.4,0.1,1.8s0.2,0.7,0.3,1c0.2,0.3,0.5,0.4,0.9,0.6
		c0.4,0.1,1,0.2,1.8,0.2h1.7c0.7,0,1.4-0.1,2.1-0.3c0.7-0.2,1.3-0.7,1.9-1.4c0.6-0.8,1.1-1.9,1.3-3.6H91L91,78.1z"/>
	<path class="st4" d="M124.9,76.7c-0.6,0.1-1.1,0.2-1.4,0.3s-0.5,0.4-0.6,0.7c-0.1,0.3-0.2,0.8-0.2,1.5v5c-1.5,0-3.2,0.2-4.9,0.6
		c-1.3,0.3-2.2,0.5-2.9,0.6c-0.6,0.1-1.4,0.2-2.3,0.2c-2.3,0-4.3-0.5-5.9-1.6s-2.9-2.5-3.7-4.2c-0.8-1.7-1.2-3.4-1.2-5.2
		c0-2.1,0.5-3.9,1.5-5.6s2.3-3,3.9-4c1.7-1,3.5-1.5,5.5-1.5c2.4,0,4.6,0.8,6.6,2.5c0.2-0.4,0.4-1.1,0.6-1.8h1.5l0.2,7h-1.4
		c-0.2-1.1-0.6-2-1.2-2.9s-1.4-1.6-2.3-2.1s-1.9-0.8-3-0.8c-0.8,0-1.6,0.1-2.3,0.4s-1.5,0.8-2.1,1.4s-1.2,1.6-1.6,2.8
		s-0.6,2.6-0.6,4.4c0,1.5,0.2,2.9,0.5,4.3s0.9,2.6,1.9,3.5c1,1,2.3,1.5,4.1,1.5c1.4,0,2.4-0.2,3.1-0.7s1.2-1,1.4-1.6
		c0.2-0.6,0.3-1.3,0.3-2.1c0-0.7-0.1-1.3-0.2-1.6c-0.1-0.3-0.4-0.6-0.8-0.7c-0.4-0.2-1-0.2-1.9-0.2v-1.4h9.5L124.9,76.7L124.9,76.7z
		"/>
	<path class="st4" d="M139.2,74.2c0,0.6-0.2,1.1-0.6,1.4c-0.4,0.3-0.8,0.5-1.3,0.5c-0.6,0-1.1-0.3-1.6-0.9c-0.2-0.3-0.4-0.4-0.5-0.6
		c-0.1-0.1-0.3-0.2-0.6-0.2c-0.8,0-1.4,0.4-1.9,1.3s-0.7,1.8-0.7,2.8v2.7c0,0.9,0.1,1.5,0.3,1.8s0.8,0.5,1.8,0.5h0.8v1.4h-9.8v-1.4
		h0.8c0.9,0,1.4-0.2,1.6-0.5s0.3-0.9,0.3-1.8v-4.6c0-0.7-0.1-1.2-0.2-1.5s-0.4-0.5-0.8-0.6s-0.9-0.2-1.8-0.2v-1.4l6.1-1.3
		c0.2,0.5,0.3,1.7,0.4,3.4c0.3-0.6,0.7-1.2,1.1-1.7c0.5-0.5,1-0.9,1.6-1.2c0.6-0.3,1.2-0.5,1.8-0.5c0.9,0,1.5,0.2,2,0.7
		S139.2,73.5,139.2,74.2L139.2,74.2z"/>
	<path class="st4" d="M156.5,81.8c0,0.8-0.2,1.5-0.5,2s-0.8,1-1.3,1.2s-1.2,0.4-1.9,0.4c-0.9,0-1.6-0.2-2.2-0.6s-0.9-0.9-1.1-1.5
		c-1.8,1.4-3.5,2.1-5.3,2.1c-1.1,0-2.1-0.3-2.8-0.8s-1.1-1.3-1.1-2.2c0-0.7,0.2-1.4,0.6-2c0.4-0.6,0.9-1.1,1.7-1.6s1.6-0.9,2.7-1.3
		s2.3-0.7,3.9-1.1v-0.9c0-0.7-0.2-1.3-0.5-1.8s-1-0.6-1.9-0.6c-0.8,0-1.4,0.2-1.7,0.5s-0.6,0.8-0.7,1.5c-0.1,0.5-0.2,0.9-0.5,1.2
		s-0.7,0.5-1.4,0.5c-0.4,0-0.8-0.1-1.2-0.4s-0.5-0.6-0.5-1.1c0-1,0.5-1.8,1.6-2.5s2.7-1.1,4.9-1.1c2.3,0,3.9,0.4,4.8,1.2
		c0.9,0.8,1.3,1.8,1.3,3.1v5c0,0.6,0,1.1,0.1,1.4s0.1,0.5,0.3,0.7s0.4,0.2,0.7,0.2s0.5-0.1,0.7-0.4s0.3-0.6,0.3-1L156.5,81.8
		L156.5,81.8z M149.3,81.9V78c-2,0.6-3.3,1.2-3.8,1.8s-0.8,1.2-0.8,1.8c0,0.5,0.1,0.9,0.4,1.2s0.7,0.4,1.2,0.4
		c0.6,0,1.1-0.1,1.5-0.4S148.8,82.3,149.3,81.9L149.3,81.9z"/>
	<path class="st4" d="M174.6,78.4c0,1.3-0.3,2.5-0.9,3.6c-0.6,1.1-1.4,2-2.5,2.6s-2.3,1-3.6,1c-1.6,0-3.1-0.6-4.3-1.7v5
		c0,0.6,0,1,0.1,1.3s0.3,0.5,0.5,0.7c0.3,0.2,0.7,0.2,1.3,0.2h0.9v1.4H157v-1.4c0.7,0,1.2-0.1,1.5-0.2s0.5-0.3,0.6-0.6
		c0.1-0.3,0.1-0.8,0.1-1.4V76.6c0-0.6,0-1.1-0.1-1.3c-0.1-0.3-0.3-0.5-0.6-0.6s-0.8-0.2-1.5-0.2v-1.4l6.1-1.3c0.1,0.4,0.2,1.1,0.2,2
		c0.7-0.7,1.4-1.2,2.1-1.5c0.7-0.3,1.6-0.5,2.6-0.5c1.1,0,2,0.2,2.8,0.6s1.5,0.9,2.1,1.5s1,1.3,1.3,2.2S174.6,77.6,174.6,78.4
		L174.6,78.4z M170.3,78.3c0-3.2-1.1-4.8-3.4-4.8c-0.7,0-1.4,0.2-2,0.6s-1.1,0.9-1.6,1.6v6.2c0.4,0.6,0.9,1.1,1.6,1.5s1.3,0.6,2,0.6
		C169.2,83.9,170.3,82,170.3,78.3L170.3,78.3z"/>
	<path class="st4" d="M194.1,85.1H186v-1.4c0.7,0,1.2-0.1,1.5-0.4s0.4-0.6,0.4-1.1v-5.3c0-0.5,0-1-0.1-1.4s-0.3-0.8-0.5-1.1
		s-0.7-0.5-1.4-0.5c-0.5,0-1,0.1-1.5,0.4s-0.9,0.6-1.2,1c-0.3,0.5-0.5,0.9-0.6,1.4s-0.1,1-0.1,1.6V81c0,0.7,0,1.3,0.1,1.6
		c0.1,0.3,0.2,0.6,0.5,0.8s0.7,0.3,1.3,0.3v1.4h-8.2v-1.4c0.7,0,1.2-0.1,1.6-0.2s0.5-0.4,0.6-0.7s0.1-0.8,0.1-1.4V68.2
		c0-0.8-0.1-1.3-0.4-1.6s-0.9-0.4-1.9-0.4v-1.4l6.3-1.3V74c0.6-0.7,1.3-1.2,1.9-1.6s1.6-0.7,2.8-0.7c0.5,0,1.1,0.1,1.6,0.2
		c0.5,0.2,1,0.4,1.5,0.7c0.4,0.3,0.8,0.7,0.9,1c0.4,0.8,0.6,1.8,0.6,3v4.7c0,0.9,0.1,1.5,0.3,1.8s0.8,0.5,1.8,0.5L194.1,85.1
		L194.1,85.1z"/>
	<path class="st4" d="M204,85.1h-8.5v-1.4h0.5c0.6,0,1.1-0.1,1.3-0.3s0.4-0.4,0.5-0.7c0.1-0.3,0.1-0.8,0.1-1.3v-4.7
		c0-0.7,0-1.1-0.1-1.4s-0.3-0.5-0.6-0.6s-0.9-0.2-1.7-0.2v-1.4l6.4-1.3v9.6c0,0.9,0.1,1.5,0.3,1.8s0.8,0.5,1.8,0.5V85.1L204,85.1z
		 M202.2,65.6c0,0.6-0.2,1.2-0.7,1.6c-0.4,0.4-1,0.7-1.6,0.7s-1.1-0.2-1.6-0.7s-0.7-1-0.7-1.6s0.2-1.2,0.7-1.6s1-0.7,1.6-0.7
		s1.2,0.2,1.6,0.7C202,64.4,202.2,64.9,202.2,65.6L202.2,65.6z"/>
	<path class="st4" d="M219.7,81.9c-1.3,2.5-3.3,3.7-6.1,3.7c-1.3,0-2.6-0.3-3.7-0.8c-1.2-0.5-2.1-1.3-2.8-2.3s-1.1-2.2-1.1-3.6
		c0-0.9,0.2-1.8,0.6-2.7s0.9-1.6,1.7-2.3c0.7-0.7,1.6-1.2,2.6-1.6s2.1-0.6,3.2-0.6c1.4,0,2.7,0.3,3.8,0.9s1.6,1.4,1.6,2.4
		c0,0.5-0.2,0.8-0.5,1.2c-0.3,0.3-0.7,0.5-1.2,0.5s-0.8-0.1-1-0.3c-0.2-0.2-0.4-0.4-0.5-0.6s-0.2-0.6-0.3-1.1s-0.4-0.9-0.7-1.1
		s-0.8-0.3-1.3-0.3c-0.9,0-1.8,0.3-2.5,1.1c-0.7,0.7-1.1,2-1.1,4c0,1,0.1,2,0.4,2.9s0.8,1.6,1.4,2.1c0.6,0.5,1.4,0.8,2.4,0.8
		s1.8-0.3,2.4-0.8c0.5-0.5,1-1.1,1.4-1.8L219.7,81.9L219.7,81.9z"/>
	<path class="st4" d="M234.8,81.3c0,0.9-0.3,1.7-0.8,2.3s-1.3,1.1-2.2,1.4s-2,0.5-3.2,0.5c-0.8,0-1.7-0.1-2.5-0.2
		c-0.8-0.2-1.6-0.4-2.2-0.7l-0.6,0.9h-1.2l-0.2-4.1h1.3c0.2,0.7,0.8,1.3,1.6,1.9s2,0.8,3.6,0.8c0.4,0,0.8,0,1.3-0.1s0.9-0.2,1.3-0.5
		s0.6-0.7,0.6-1.2s-0.2-0.8-0.6-1c-0.4-0.2-1.3-0.5-2.4-0.8c-1.4-0.4-2.6-0.7-3.6-1s-1.7-0.8-2.3-1.4s-1-1.4-1-2.4
		c0-1.2,0.6-2.2,1.7-2.9c1.1-0.7,2.6-1.1,4.5-1.1c1.1,0,2.1,0.1,2.8,0.3c0.7,0.2,1.3,0.4,1.7,0.6l0.4-0.8h1.3v3.6h-1.3
		c-0.1-0.4-0.4-0.8-0.8-1.2c-0.4-0.4-0.9-0.6-1.6-0.8c-0.7-0.2-1.5-0.3-2.3-0.3c-0.7,0-1.5,0.1-2.2,0.2c-0.7,0.2-1.1,0.5-1.1,1.1
		c0,0.2,0.1,0.4,0.2,0.6c0.1,0.2,0.4,0.3,0.7,0.4s0.9,0.3,1.8,0.5c0.9,0.2,1.4,0.3,1.6,0.4c1.7,0.4,3.1,1,4.2,1.6
		S234.8,79.8,234.8,81.3L234.8,81.3z"/>
</g>
<g>
	<path class="st5" d="M35.8,107.9h-2.2c0-0.1-0.1-0.2-0.1-0.3c0-0.3,0.1-0.4,0.3-0.4h0.4v-5.6h-0.7c0-0.1-0.1-0.2-0.1-0.3
		c0-0.2,0.1-0.3,0.2-0.3s0.3-0.1,0.6-0.1s0.5,0,0.7,0.1c0,0.1,0,0.1,0,0.2s0,0.2,0,0.3c0.2-0.2,0.4-0.4,0.7-0.6s0.6-0.2,1-0.2
		c0.7,0,1.1,0.2,1.5,0.7s0.5,1,0.5,1.7c0,0.8-0.2,1.4-0.6,1.9c-0.4,0.5-0.9,0.7-1.6,0.7c-0.6,0-1.1-0.2-1.4-0.5v1.9h1
		c0,0.1,0.1,0.2,0.1,0.3C36.1,107.8,36,107.9,35.8,107.9z M35.2,104.6c0.3,0.3,0.7,0.4,1.2,0.4c1,0,1.5-0.6,1.5-1.8
		c0-0.6-0.1-1-0.4-1.3c-0.2-0.3-0.6-0.4-1-0.4c-0.2,0-0.5,0.1-0.7,0.2s-0.4,0.3-0.6,0.4V104.6L35.2,104.6z"/>
	<path class="st5" d="M43.4,105.6h-2.2c0-0.1-0.1-0.2-0.1-0.3c0-0.3,0.1-0.4,0.3-0.4h0.4v-3.4h-0.7c0-0.1-0.1-0.2-0.1-0.3
		c0-0.2,0.1-0.3,0.2-0.3s0.3-0.1,0.6-0.1s0.5,0,0.7,0.1c0,0.1,0.1,0.3,0.1,0.5v0.2c0.1-0.3,0.3-0.5,0.5-0.6s0.5-0.2,0.8-0.2
		s0.5,0.1,0.7,0.2s0.3,0.2,0.3,0.4c0,0.1,0,0.2-0.1,0.3s-0.2,0.2-0.3,0.3c-0.2-0.2-0.5-0.3-0.8-0.3c-0.2,0-0.5,0.1-0.7,0.2
		s-0.4,0.3-0.4,0.5v2.6h0.8c0,0.1,0.1,0.2,0.1,0.3C43.8,105.5,43.7,105.6,43.4,105.6L43.4,105.6z"/>
	<path class="st5" d="M49.2,105.6H47c0-0.1-0.1-0.2-0.1-0.3c0-0.3,0.1-0.4,0.3-0.4h0.5v-3.4H47c0-0.1-0.1-0.2-0.1-0.3
		c0-0.2,0.1-0.3,0.2-0.3s0.4-0.1,0.7-0.1s0.6,0,0.8,0.1c0,0.1,0.1,0.3,0.1,0.5v3.4h0.7c0,0.1,0.1,0.2,0.1,0.3
		C49.5,105.5,49.4,105.6,49.2,105.6L49.2,105.6z M48.7,99.1c0,0.2-0.1,0.3-0.2,0.4s-0.3,0.2-0.5,0.2s-0.3-0.1-0.4-0.2
		s-0.2-0.3-0.2-0.4c0-0.2,0.1-0.3,0.2-0.4s0.3-0.2,0.4-0.2s0.3,0.1,0.5,0.2C48.6,98.7,48.7,98.9,48.7,99.1z"/>
	<path class="st5" d="M53.7,105.6h-2.1c0-0.1-0.1-0.2-0.1-0.3c0-0.3,0.1-0.4,0.3-0.4h0.4v-3.4h-0.7c0-0.1-0.1-0.2-0.1-0.3
		c0-0.2,0.1-0.3,0.2-0.3s0.3-0.1,0.6-0.1s0.5,0,0.7,0.1c0,0.1,0.1,0.3,0.1,0.6c0.2-0.2,0.4-0.4,0.7-0.6s0.6-0.2,1-0.2
		c1.1,0,1.7,0.6,1.7,1.9v2.3h0.7c0,0.1,0.1,0.2,0.1,0.3c0,0.3-0.1,0.4-0.3,0.4h-2c0-0.1-0.1-0.2-0.1-0.3c0-0.3,0.1-0.4,0.3-0.4h0.4
		v-2.2c0-0.8-0.3-1.2-1-1.2c-0.5,0-1,0.2-1.3,0.6v2.9h0.7c0,0.1,0.1,0.2,0.1,0.3C54,105.5,53.9,105.6,53.7,105.6z"/>
	<path class="st5" d="M62.9,105.1c0,0.1-0.1,0.2-0.2,0.3s-0.3,0.2-0.5,0.2s-0.4,0.1-0.6,0.1c-0.6,0-1-0.1-1.3-0.4s-0.4-0.7-0.4-1.2
		v-2.5h-0.7c0-0.1-0.1-0.2-0.1-0.3c0-0.3,0.1-0.4,0.3-0.4h0.5v-1.1c0-0.2,0.2-0.3,0.5-0.3c0.2,0,0.3,0,0.4,0.1v1.3h1.9
		c0,0.1,0.1,0.2,0.1,0.3c0,0.3-0.1,0.4-0.3,0.4h-1.6v2.4c0,0.6,0.3,0.9,0.9,0.9c0.3,0,0.6-0.1,0.9-0.3c0.1,0.1,0.2,0.1,0.2,0.2
		S62.9,105,62.9,105.1L62.9,105.1z"/>
	<path class="st5" d="M67,105.6h-2.1c0-0.1-0.1-0.2-0.1-0.3c0-0.3,0.1-0.4,0.3-0.4h0.5v-3.4h-0.7c0-0.1-0.1-0.2-0.1-0.3
		c0-0.2,0.1-0.3,0.2-0.3s0.4-0.1,0.7-0.1s0.6,0,0.8,0.1c0,0.1,0.1,0.3,0.1,0.5v3.4h0.7c0,0.1,0.1,0.2,0.1,0.3
		C67.3,105.5,67.2,105.6,67,105.6L67,105.6z M66.5,99.1c0,0.2-0.1,0.3-0.2,0.4s-0.3,0.2-0.5,0.2s-0.3-0.1-0.4-0.2s-0.2-0.3-0.2-0.4
		c0-0.2,0.1-0.3,0.2-0.4s0.3-0.2,0.4-0.2s0.3,0.1,0.5,0.2C66.5,98.7,66.5,98.9,66.5,99.1z"/>
	<path class="st5" d="M71.5,105.6h-2.1c0-0.1-0.1-0.2-0.1-0.3c0-0.3,0.1-0.4,0.3-0.4H70v-3.4h-0.7c0-0.1-0.1-0.2-0.1-0.3
		c0-0.2,0.1-0.3,0.2-0.3s0.3-0.1,0.6-0.1s0.6,0,0.7,0.1c0,0.1,0.1,0.3,0.1,0.6c0.2-0.2,0.4-0.4,0.7-0.6s0.6-0.2,0.9-0.2
		c1.1,0,1.7,0.6,1.7,1.9v2.3H75c0,0.1,0.1,0.2,0.1,0.3c0,0.3-0.1,0.4-0.3,0.4h-2c0-0.1-0.1-0.2-0.1-0.3c0-0.3,0.1-0.4,0.3-0.4h0.4
		v-2.2c0-0.8-0.3-1.2-1-1.2c-0.5,0-0.9,0.2-1.3,0.6v2.9h0.7c0,0.1,0.1,0.2,0.1,0.3C71.8,105.5,71.7,105.6,71.5,105.6z"/>
	<path class="st5" d="M80.9,101h1.6c0,0.1,0.1,0.2,0.1,0.3c0,0.3-0.1,0.4-0.4,0.4c-0.2,0-0.3,0-0.6-0.1c0.2,0.3,0.3,0.6,0.3,0.9
		c0,0.5-0.2,0.9-0.6,1.2c-0.4,0.3-0.9,0.5-1.6,0.5c-0.2,0-0.3,0-0.5,0s-0.3-0.1-0.4-0.1c-0.2,0-0.3,0.1-0.4,0.2s-0.2,0.2-0.2,0.4
		c0,0.3,0.3,0.5,0.8,0.5h1.4c1.1,0,1.6,0.4,1.6,1.3c0,0.5-0.2,0.9-0.7,1.2c-0.4,0.3-1,0.5-1.7,0.5s-1.2-0.1-1.6-0.3
		c-0.4-0.2-0.6-0.6-0.6-1c0-0.2,0.1-0.4,0.2-0.5c0.1-0.2,0.2-0.3,0.4-0.4c-0.3-0.1-0.5-0.2-0.6-0.3c-0.2-0.2-0.2-0.4-0.2-0.6
		s0.1-0.4,0.3-0.6c0.2-0.2,0.4-0.3,0.7-0.4c-0.2-0.1-0.4-0.3-0.5-0.6c-0.1-0.2-0.2-0.5-0.2-0.8c0-0.5,0.2-0.9,0.6-1.3
		c0.4-0.3,0.9-0.5,1.6-0.5c0.2,0,0.4,0,0.6,0.1S80.7,100.9,80.9,101L80.9,101z M80.1,105.8h-1.5c-0.2,0.2-0.3,0.4-0.3,0.6
		c0,0.3,0.1,0.5,0.4,0.7s0.6,0.2,1,0.2s0.7-0.1,1-0.3s0.4-0.4,0.4-0.7C81.1,106.1,80.8,105.9,80.1,105.8L80.1,105.8z M78.4,102.5
		c0,0.3,0.1,0.6,0.3,0.8c0.2,0.2,0.5,0.3,0.9,0.3s0.7-0.1,0.9-0.3s0.3-0.5,0.3-0.8s-0.1-0.6-0.3-0.8c-0.2-0.2-0.5-0.3-0.9-0.3
		s-0.7,0.1-0.9,0.3S78.4,102.2,78.4,102.5L78.4,102.5z"/>
	<path class="st5" d="M95.5,101.6h-0.6c-0.2,1.1-0.5,1.9-1,2.6l1,0.7h0.9c0,0.1,0.1,0.2,0.1,0.3c0,0.2-0.1,0.3-0.2,0.4
		s-0.3,0.1-0.6,0.1c-0.2,0-0.3,0-0.4,0s-0.3-0.1-0.3-0.1l-0.9-0.7c-0.7,0.7-1.5,1-2.5,1c-0.8,0-1.4-0.2-1.8-0.5
		c-0.5-0.4-0.7-0.8-0.7-1.4c0-0.8,0.5-1.4,1.5-1.8c-0.6-0.5-0.9-1.1-0.9-1.7c0-0.5,0.2-1,0.5-1.3s0.8-0.5,1.4-0.5
		c0.5,0,1,0.2,1.3,0.5s0.5,0.7,0.5,1.2c0,0.8-0.5,1.4-1.5,1.9l2.1,1.6c0.4-0.6,0.7-1.3,0.8-2.1h-0.9c0-0.1-0.1-0.2-0.1-0.3
		c0-0.3,0.1-0.4,0.3-0.4h2.3c0,0.1,0.1,0.2,0.1,0.3C95.8,101.4,95.7,101.6,95.5,101.6L95.5,101.6z M91,105c0.7,0,1.3-0.2,1.8-0.7
		l-2.4-1.9c-0.7,0.4-1.1,0.8-1.1,1.3c0,0.4,0.2,0.7,0.5,0.9S90.5,105,91,105L91,105z M89.8,100.3c0,0.3,0.1,0.5,0.2,0.7
		s0.4,0.4,0.7,0.7c0.8-0.4,1.1-0.8,1.1-1.4c0-0.3-0.1-0.5-0.3-0.7s-0.4-0.3-0.7-0.3s-0.5,0.1-0.7,0.3S89.8,100,89.8,100.3
		L89.8,100.3z"/>
	<path class="st5" d="M103.8,105.6h-2.1c0-0.1-0.1-0.2-0.1-0.3c0-0.3,0.1-0.4,0.3-0.4h0.5v-3.4h-0.7c0-0.1-0.1-0.2-0.1-0.3
		c0-0.2,0.1-0.3,0.2-0.3s0.4-0.1,0.7-0.1s0.6,0,0.8,0.1c0,0.1,0.1,0.3,0.1,0.5v3.4h0.7c0,0.1,0.1,0.2,0.1,0.3
		C104.1,105.5,104,105.6,103.8,105.6L103.8,105.6z M103.4,99.1c0,0.2-0.1,0.3-0.2,0.4s-0.3,0.2-0.5,0.2s-0.3-0.1-0.4-0.2
		s-0.2-0.3-0.2-0.4c0-0.2,0.1-0.3,0.2-0.4s0.3-0.2,0.4-0.2s0.3,0.1,0.5,0.2C103.3,98.7,103.4,98.9,103.4,99.1z"/>
	<path class="st5" d="M108.4,105.6h-2.1c0-0.1-0.1-0.2-0.1-0.3c0-0.3,0.1-0.4,0.3-0.4h0.4v-3.4h-0.7c0-0.1-0.1-0.2-0.1-0.3
		c0-0.2,0.1-0.3,0.2-0.3s0.3-0.1,0.6-0.1s0.6,0,0.7,0.1c0,0.1,0.1,0.3,0.1,0.6c0.2-0.2,0.4-0.4,0.7-0.6s0.6-0.2,0.9-0.2
		c1.1,0,1.7,0.6,1.7,1.9v2.3h0.7c0,0.1,0.1,0.2,0.1,0.3c0,0.3-0.1,0.4-0.3,0.4h-2c0-0.1-0.1-0.2-0.1-0.3c0-0.3,0.1-0.4,0.3-0.4h0.4
		v-2.2c0-0.8-0.3-1.2-1-1.2c-0.5,0-0.9,0.2-1.3,0.6v2.9h0.7c0,0.1,0.1,0.2,0.1,0.3C108.7,105.5,108.6,105.6,108.4,105.6z"/>
	<path class="st5" d="M117.5,105.1c0,0.1-0.1,0.2-0.2,0.3s-0.3,0.2-0.5,0.2s-0.4,0.1-0.6,0.1c-0.6,0-1-0.1-1.3-0.4s-0.4-0.7-0.4-1.2
		v-2.5h-0.7c0-0.1-0.1-0.2-0.1-0.3c0-0.3,0.1-0.4,0.3-0.4h0.5v-1.1c0-0.2,0.2-0.3,0.5-0.3c0.2,0,0.3,0,0.4,0.1v1.3h1.9
		c0,0.1,0.1,0.2,0.1,0.3c0,0.3-0.1,0.4-0.3,0.4h-1.6v2.4c0,0.6,0.3,0.9,0.9,0.9c0.3,0,0.6-0.1,0.9-0.3c0.1,0.1,0.2,0.1,0.2,0.2
		C117.5,104.9,117.5,105,117.5,105.1L117.5,105.1z"/>
	<path class="st5" d="M123.8,105c0,0.2-0.2,0.4-0.5,0.6s-0.8,0.3-1.2,0.3c-0.8,0-1.4-0.2-1.8-0.7c-0.5-0.4-0.7-1.1-0.7-1.8
		c0-0.7,0.2-1.3,0.7-1.8s1-0.7,1.7-0.7c0.6,0,1.1,0.2,1.4,0.5s0.5,0.8,0.5,1.4c0,0.2,0,0.4-0.1,0.7h-3.3c0,0.5,0.2,0.9,0.5,1.2
		c0.3,0.3,0.7,0.4,1.2,0.4s0.9-0.2,1.3-0.5C123.7,104.6,123.8,104.8,123.8,105L123.8,105z M121.9,101.4c-0.4,0-0.7,0.1-0.9,0.4
		s-0.4,0.6-0.5,1h2.5v-0.1v-0.1c0-0.4-0.1-0.7-0.3-0.8C122.6,101.5,122.3,101.4,121.9,101.4z"/>
	<path class="st5" d="M130,101h1.6c0,0.1,0.1,0.2,0.1,0.3c0,0.3-0.1,0.4-0.4,0.4c-0.1,0-0.4,0-0.6-0.1c0.2,0.3,0.3,0.6,0.3,0.9
		c0,0.5-0.2,0.9-0.6,1.2c-0.4,0.3-0.9,0.5-1.6,0.5c-0.2,0-0.4,0-0.5,0c-0.2,0-0.3-0.1-0.4-0.1c-0.2,0-0.3,0.1-0.4,0.2
		s-0.2,0.2-0.2,0.4c0,0.3,0.3,0.5,0.8,0.5h1.4c1.1,0,1.6,0.4,1.6,1.3c0,0.5-0.2,0.9-0.6,1.2s-1,0.5-1.7,0.5c-0.6,0-1.2-0.1-1.6-0.3
		c-0.4-0.2-0.6-0.6-0.6-1c0-0.2,0.1-0.4,0.2-0.5s0.2-0.3,0.4-0.4c-0.3-0.1-0.5-0.2-0.6-0.3c-0.2-0.2-0.2-0.4-0.2-0.6
		s0.1-0.4,0.3-0.6c0.2-0.2,0.4-0.3,0.7-0.4c-0.2-0.1-0.4-0.3-0.5-0.6c-0.1-0.2-0.2-0.5-0.2-0.8c0-0.5,0.2-0.9,0.6-1.3
		c0.4-0.3,0.9-0.5,1.6-0.5c0.2,0,0.4,0,0.6,0.1S129.8,100.9,130,101L130,101z M129.3,105.8h-1.5c-0.2,0.2-0.3,0.4-0.3,0.6
		c0,0.3,0.1,0.5,0.4,0.7c0.3,0.2,0.6,0.2,1,0.2s0.7-0.1,1-0.3s0.4-0.4,0.4-0.7C130.3,106.1,129.9,105.9,129.3,105.8L129.3,105.8z
		 M127.6,102.5c0,0.3,0.1,0.6,0.3,0.8c0.2,0.2,0.5,0.3,0.9,0.3s0.7-0.1,0.9-0.3c0.2-0.2,0.3-0.5,0.3-0.8s-0.1-0.6-0.3-0.8
		s-0.5-0.3-0.9-0.3s-0.7,0.1-0.9,0.3S127.6,102.2,127.6,102.5L127.6,102.5z"/>
	<path class="st5" d="M135.9,105.6h-2.2c0-0.1-0.1-0.2-0.1-0.3c0-0.3,0.1-0.4,0.3-0.4h0.4v-3.4h-0.7c0-0.1-0.1-0.2-0.1-0.3
		c0-0.2,0.1-0.3,0.2-0.3s0.3-0.1,0.6-0.1s0.5,0,0.7,0.1c0,0.1,0.1,0.3,0.1,0.5v0.2c0.1-0.3,0.3-0.5,0.5-0.6s0.5-0.2,0.8-0.2
		s0.5,0.1,0.7,0.2s0.3,0.2,0.3,0.4c0,0.1,0,0.2-0.1,0.3s-0.1,0.2-0.3,0.3c-0.2-0.2-0.5-0.3-0.8-0.3c-0.2,0-0.5,0.1-0.7,0.2
		s-0.4,0.3-0.4,0.5v2.6h0.9c0,0.1,0.1,0.2,0.1,0.3C136.3,105.5,136.2,105.6,135.9,105.6L135.9,105.6z"/>
	<path class="st5" d="M142.9,105c-0.2,0.2-0.4,0.4-0.7,0.5s-0.6,0.2-0.9,0.2c-0.5,0-0.9-0.1-1.2-0.4s-0.4-0.6-0.4-1s0.2-0.8,0.5-1.1
		s0.8-0.4,1.4-0.4c0.2,0,0.4,0,0.6,0c0.2,0,0.4,0.1,0.6,0.1v-0.4c0-0.8-0.4-1.2-1.2-1.2c-0.6,0-1.1,0.2-1.4,0.6
		c-0.2-0.1-0.3-0.2-0.3-0.4c0-0.2,0.2-0.4,0.6-0.6s0.8-0.3,1.3-0.3c0.8,0,1.3,0.2,1.6,0.6s0.4,0.9,0.4,1.6v2h0.7
		c0,0.1,0.1,0.2,0.1,0.3c0,0.2-0.1,0.3-0.2,0.3s-0.3,0.1-0.6,0.1c-0.2,0-0.3,0-0.4,0c-0.1,0-0.2-0.1-0.3-0.1c0-0.1-0.1-0.1-0.1-0.2
		C142.9,105.2,142.9,105.1,142.9,105L142.9,105z M140.6,104.3c0,0.5,0.3,0.8,1,0.8c0.5,0,0.9-0.2,1.2-0.6v-0.9
		c-0.3-0.1-0.6-0.2-1.1-0.2C140.9,103.4,140.5,103.7,140.6,104.3L140.6,104.3z"/>
	<path class="st5" d="M150.1,105.1c0,0.1-0.1,0.2-0.2,0.3s-0.3,0.2-0.5,0.2s-0.4,0.1-0.6,0.1c-0.6,0-1-0.1-1.3-0.4s-0.4-0.7-0.4-1.2
		v-2.5h-0.7c0-0.1-0.1-0.2-0.1-0.3c0-0.3,0.1-0.4,0.3-0.4h0.5v-1.1c0-0.2,0.2-0.3,0.5-0.3c0.2,0,0.3,0,0.4,0.1v1.3h1.9
		c0,0.1,0.1,0.2,0.1,0.3c0,0.3-0.1,0.4-0.3,0.4h-1.6v2.4c0,0.6,0.3,0.9,0.9,0.9c0.3,0,0.6-0.1,0.9-0.3c0.1,0.1,0.1,0.1,0.2,0.2
		S150.1,105,150.1,105.1L150.1,105.1z"/>
	<path class="st5" d="M156.4,105c0,0.2-0.2,0.4-0.5,0.6c-0.4,0.2-0.7,0.3-1.2,0.3c-0.8,0-1.4-0.2-1.8-0.7c-0.5-0.4-0.7-1.1-0.7-1.8
		c0-0.7,0.2-1.3,0.7-1.8s1-0.7,1.7-0.7c0.6,0,1.1,0.2,1.4,0.5s0.5,0.8,0.5,1.4c0,0.2,0,0.4-0.1,0.7h-3.3c0,0.5,0.2,0.9,0.5,1.2
		s0.7,0.4,1.2,0.4s0.9-0.2,1.3-0.5C156.2,104.6,156.4,104.8,156.4,105L156.4,105z M154.5,101.4c-0.4,0-0.7,0.1-0.9,0.4
		c-0.3,0.3-0.4,0.6-0.5,1h2.5v-0.1v-0.1c0-0.4-0.1-0.7-0.3-0.8C155.1,101.5,154.9,101.4,154.5,101.4L154.5,101.4z"/>
	<path class="st5" d="M162.6,105c-0.2,0.2-0.4,0.4-0.7,0.6c-0.3,0.1-0.6,0.2-1,0.2c-0.6,0-1.1-0.2-1.5-0.6s-0.5-1-0.5-1.8
		s0.2-1.4,0.6-1.9s0.9-0.7,1.6-0.7c0.6,0,1,0.2,1.4,0.5v-2.4h-0.8c0-0.1,0-0.1-0.1-0.2c0-0.1,0-0.1,0-0.1c0-0.2,0.1-0.3,0.2-0.3
		c0.1-0.1,0.4-0.1,0.7-0.1s0.6,0,0.8,0.1c0,0.1,0.1,0.3,0.1,0.5v6.2h0.7c0,0.1,0.1,0.2,0.1,0.3c0,0.2-0.1,0.3-0.2,0.3
		s-0.3,0.1-0.6,0.1c-0.4,0-0.6,0-0.8-0.1C162.6,105.4,162.6,105.2,162.6,105L162.6,105z M159.9,103.3c0,1.1,0.5,1.7,1.4,1.7
		c0.2,0,0.5-0.1,0.7-0.2s0.4-0.3,0.6-0.4v-2.6c-0.3-0.3-0.7-0.4-1.2-0.4s-0.8,0.2-1.1,0.5S159.9,102.7,159.9,103.3L159.9,103.3z"/>
	<path class="st5" d="M170.2,102.1c0-0.4,0.2-0.8,0.5-1c0.4-0.2,0.8-0.4,1.3-0.4s0.9,0.1,1.3,0.3c0.4,0.2,0.6,0.3,0.6,0.6
		c0,0.2-0.1,0.3-0.4,0.4c-0.2-0.2-0.4-0.3-0.7-0.4s-0.5-0.1-0.9-0.1c-0.6,0-0.9,0.2-0.9,0.7c0,0.2,0.1,0.3,0.2,0.4
		c0.1,0.1,0.4,0.2,0.7,0.3l0.6,0.1c0.5,0.1,0.9,0.3,1.1,0.5c0.2,0.2,0.3,0.5,0.3,0.9c0,0.5-0.2,0.9-0.6,1.1s-0.8,0.4-1.4,0.4
		s-1-0.1-1.4-0.3s-0.6-0.4-0.6-0.7c0-0.1,0-0.2,0.1-0.3c0.1-0.1,0.2-0.1,0.3-0.2c0.2,0.2,0.4,0.4,0.7,0.5s0.6,0.2,1,0.2
		c0.3,0,0.6-0.1,0.7-0.2s0.3-0.3,0.3-0.5s-0.1-0.3-0.2-0.4c-0.1-0.1-0.4-0.2-0.7-0.3l-0.6-0.1C170.7,103.3,170.1,102.9,170.2,102.1
		L170.2,102.1z"/>
	<path class="st5" d="M180.8,105c0,0.2-0.2,0.4-0.5,0.6c-0.4,0.2-0.7,0.3-1.2,0.3c-0.8,0-1.4-0.2-1.8-0.7c-0.5-0.4-0.7-1.1-0.7-1.8
		c0-0.7,0.2-1.3,0.7-1.8s1-0.7,1.7-0.7c0.6,0,1.1,0.2,1.4,0.5s0.5,0.8,0.5,1.4c0,0.2,0,0.4-0.1,0.7h-3.3c0,0.5,0.2,0.9,0.5,1.2
		s0.7,0.4,1.2,0.4s0.9-0.2,1.3-0.5C180.6,104.6,180.8,104.8,180.8,105L180.8,105z M178.9,101.4c-0.4,0-0.7,0.1-0.9,0.4
		c-0.3,0.3-0.4,0.6-0.5,1h2.5v-0.1v-0.1c0-0.4-0.1-0.7-0.3-0.8C179.5,101.5,179.3,101.4,178.9,101.4L178.9,101.4z"/>
	<path class="st5" d="M185.5,105.6h-2.2c0-0.1-0.1-0.2-0.1-0.3c0-0.3,0.1-0.4,0.3-0.4h0.4v-3.4h-0.7c0-0.1-0.1-0.2-0.1-0.3
		c0-0.2,0.1-0.3,0.2-0.3s0.3-0.1,0.6-0.1s0.5,0,0.7,0.1c0,0.1,0.1,0.3,0.1,0.5v0.2c0.1-0.3,0.3-0.5,0.5-0.6s0.5-0.2,0.8-0.2
		s0.5,0.1,0.7,0.2s0.3,0.2,0.3,0.4c0,0.1,0,0.2-0.1,0.3s-0.1,0.2-0.3,0.3c-0.2-0.2-0.5-0.3-0.8-0.3c-0.2,0-0.5,0.1-0.7,0.2
		s-0.4,0.3-0.4,0.5v2.6h0.9c0,0.1,0.1,0.2,0.1,0.3C185.8,105.5,185.7,105.6,185.5,105.6L185.5,105.6z"/>
	<path class="st5" d="M192.4,105.6h-0.8l-1.8-4.1h-0.6c0-0.1-0.1-0.2-0.1-0.3c0-0.3,0.1-0.4,0.3-0.4h2.1c0,0.1,0.1,0.2,0.1,0.3
		c0,0.3-0.1,0.4-0.3,0.4h-0.5l1.3,3.1l1.3-3.1h-0.7c0-0.1-0.1-0.2-0.1-0.3c0-0.3,0.1-0.4,0.3-0.4h1.9c0,0.1,0.1,0.2,0.1,0.3
		c0,0.3-0.1,0.4-0.3,0.4h-0.4L192.4,105.6L192.4,105.6z"/>
	<path class="st5" d="M199,105.6h-2.1c0-0.1-0.1-0.2-0.1-0.3c0-0.3,0.1-0.4,0.3-0.4h0.5v-3.4h-0.7c0-0.1-0.1-0.2-0.1-0.3
		c0-0.2,0.1-0.3,0.2-0.3s0.4-0.1,0.7-0.1s0.6,0,0.8,0.1c0,0.1,0.1,0.3,0.1,0.5v3.4h0.7c0,0.1,0.1,0.2,0.1,0.3
		C199.3,105.5,199.2,105.6,199,105.6L199,105.6z M198.5,99.1c0,0.2-0.1,0.3-0.2,0.4s-0.3,0.2-0.5,0.2s-0.3-0.1-0.4-0.2
		s-0.2-0.3-0.2-0.4c0-0.2,0.1-0.3,0.2-0.4s0.3-0.2,0.4-0.2s0.3,0.1,0.5,0.2C198.4,98.7,198.5,98.9,198.5,99.1z"/>
	<path class="st5" d="M202.4,103.2c0,1.2,0.5,1.8,1.5,1.8c0.5,0,0.9-0.2,1.2-0.5c0.2,0.1,0.3,0.2,0.3,0.4c0,0.2-0.2,0.4-0.5,0.6
		s-0.7,0.3-1.1,0.3c-0.8,0-1.3-0.2-1.8-0.7c-0.4-0.4-0.6-1-0.6-1.8s0.2-1.4,0.7-1.9c0.4-0.5,1-0.7,1.8-0.7c0.4,0,0.8,0.1,1.1,0.3
		c0.3,0.2,0.4,0.3,0.4,0.5c0,0.1,0,0.2-0.1,0.3s-0.2,0.1-0.3,0.2c-0.3-0.3-0.6-0.5-1.1-0.5s-0.8,0.2-1.1,0.5
		S202.4,102.7,202.4,103.2L202.4,103.2z"/>
	<path class="st5" d="M211.9,105c0,0.2-0.2,0.4-0.5,0.6c-0.4,0.2-0.7,0.3-1.2,0.3c-0.8,0-1.4-0.2-1.8-0.7c-0.5-0.4-0.7-1.1-0.7-1.8
		c0-0.7,0.2-1.3,0.7-1.8s1-0.7,1.7-0.7c0.6,0,1.1,0.2,1.4,0.5s0.5,0.8,0.5,1.4c0,0.2,0,0.4-0.1,0.7h-3.3c0,0.5,0.2,0.9,0.5,1.2
		s0.7,0.4,1.2,0.4s0.9-0.2,1.3-0.5C211.8,104.6,211.9,104.8,211.9,105L211.9,105z M210.1,101.4c-0.4,0-0.7,0.1-0.9,0.4
		c-0.3,0.3-0.4,0.6-0.5,1h2.5v-0.1v-0.1c0-0.4-0.1-0.7-0.3-0.8C210.7,101.5,210.4,101.4,210.1,101.4L210.1,101.4z"/>
	<path class="st5" d="M214.6,102.1c0-0.4,0.2-0.8,0.5-1c0.4-0.2,0.8-0.4,1.3-0.4s0.9,0.1,1.3,0.3c0.4,0.2,0.6,0.3,0.6,0.6
		c0,0.2-0.1,0.3-0.4,0.4c-0.2-0.2-0.4-0.3-0.7-0.4s-0.5-0.1-0.9-0.1c-0.6,0-0.9,0.2-0.9,0.7c0,0.2,0.1,0.3,0.2,0.4
		c0.1,0.1,0.4,0.2,0.7,0.3l0.6,0.1c0.5,0.1,0.9,0.3,1.1,0.5c0.2,0.2,0.3,0.5,0.3,0.9c0,0.5-0.2,0.9-0.6,1.1s-0.8,0.4-1.4,0.4
		s-1-0.1-1.4-0.3s-0.6-0.4-0.6-0.7c0-0.1,0-0.2,0.1-0.3c0.1-0.1,0.2-0.1,0.3-0.2c0.2,0.2,0.4,0.4,0.7,0.5s0.6,0.2,1,0.2
		c0.3,0,0.6-0.1,0.7-0.2s0.3-0.3,0.3-0.5s-0.1-0.3-0.2-0.4c-0.1-0.1-0.4-0.2-0.7-0.3l-0.6-0.1C215.1,103.3,214.5,102.9,214.6,102.1
		L214.6,102.1z"/>
</g>
</svg>
